<mxfile host="app.diagrams.net" modified="2024-04-09T19:12:31.001Z" agent="Mozilla/5.0 (Windows NT 10.0; Win64; x64) AppleWebKit/537.36 (KHTML, like Gecko) Chrome/123.0.0.0 Safari/537.36" etag="1sIyU2DA0U1VeQhWGBKu" version="24.2.2" type="github" pages="8">
  <diagram id="C5RBs43oDa-KdzZeNtuy" name="Page-1">
    <mxGraphModel grid="1" page="1" gridSize="10" guides="1" tooltips="1" connect="1" arrows="1" fold="1" pageScale="1" pageWidth="827" pageHeight="1169" background="none" math="0" shadow="0">
      <root>
        <mxCell id="WIyWlLk6GJQsqaUBKTNV-0" />
        <mxCell id="WIyWlLk6GJQsqaUBKTNV-1" parent="WIyWlLk6GJQsqaUBKTNV-0" />
        <mxCell id="WIyWlLk6GJQsqaUBKTNV-5" value="No" style="edgeStyle=orthogonalEdgeStyle;rounded=0;html=1;jettySize=auto;orthogonalLoop=1;fontSize=11;endArrow=block;endFill=0;endSize=8;strokeWidth=1;shadow=0;labelBackgroundColor=none;entryX=0;entryY=0.5;entryDx=0;entryDy=0;fillColor=#A6A6A6;" parent="WIyWlLk6GJQsqaUBKTNV-1" source="WIyWlLk6GJQsqaUBKTNV-6" edge="1">
          <mxGeometry x="-0.4083" y="10" relative="1" as="geometry">
            <mxPoint as="offset" />
            <mxPoint x="360" y="280" as="targetPoint" />
          </mxGeometry>
        </mxCell>
        <mxCell id="WIyWlLk6GJQsqaUBKTNV-6" value="&lt;div&gt;&lt;font size=&quot;3&quot;&gt;while i&amp;lt;=n&lt;/font&gt;&lt;/div&gt;" style="rhombus;whiteSpace=wrap;html=1;shadow=0;fontFamily=Helvetica;fontSize=12;align=center;strokeWidth=1;spacing=6;spacingTop=-4;fillColor=#A6A6A6;rounded=0;" parent="WIyWlLk6GJQsqaUBKTNV-1" vertex="1">
          <mxGeometry x="170" y="240" width="100" height="80" as="geometry" />
        </mxCell>
        <mxCell id="WIyWlLk6GJQsqaUBKTNV-9" value="Yes" style="edgeStyle=orthogonalEdgeStyle;rounded=0;html=1;jettySize=auto;orthogonalLoop=1;fontSize=11;endArrow=block;endFill=0;endSize=8;strokeWidth=1;shadow=0;labelBackgroundColor=none;entryX=0.067;entryY=0.504;entryDx=0;entryDy=0;entryPerimeter=0;fillColor=#A6A6A6;" parent="WIyWlLk6GJQsqaUBKTNV-1" source="WIyWlLk6GJQsqaUBKTNV-10" target="iwPpwcAJchl694mHt0z0-7" edge="1">
          <mxGeometry y="10" relative="1" as="geometry">
            <mxPoint as="offset" />
            <mxPoint x="320" y="330" as="targetPoint" />
          </mxGeometry>
        </mxCell>
        <mxCell id="WIyWlLk6GJQsqaUBKTNV-10" value="&lt;div&gt;&lt;font style=&quot;font-size: 18px;&quot;&gt;while j&amp;lt;=i&lt;/font&gt;&lt;/div&gt;" style="rhombus;whiteSpace=wrap;html=1;shadow=0;fontFamily=Helvetica;fontSize=12;align=center;strokeWidth=1;spacing=6;spacingTop=-4;fillColor=#A6A6A6;rounded=0;" parent="WIyWlLk6GJQsqaUBKTNV-1" vertex="1">
          <mxGeometry x="170" y="445" width="100" height="80" as="geometry" />
        </mxCell>
        <mxCell id="iwPpwcAJchl694mHt0z0-0" value="Input number n" style="shape=parallelogram;perimeter=parallelogramPerimeter;whiteSpace=wrap;html=1;fixedSize=1;fillColor=#A6A6A6;rounded=0;" vertex="1" parent="WIyWlLk6GJQsqaUBKTNV-1">
          <mxGeometry x="160" y="90" width="120" height="30" as="geometry" />
        </mxCell>
        <mxCell id="iwPpwcAJchl694mHt0z0-2" value="" style="rounded=0;html=1;jettySize=auto;orthogonalLoop=1;fontSize=11;endArrow=block;endFill=0;endSize=8;strokeWidth=1;shadow=0;labelBackgroundColor=none;edgeStyle=orthogonalEdgeStyle;fillColor=#A6A6A6;" edge="1" parent="WIyWlLk6GJQsqaUBKTNV-1">
          <mxGeometry relative="1" as="geometry">
            <mxPoint x="219.44" y="40" as="sourcePoint" />
            <mxPoint x="219.44" y="90" as="targetPoint" />
          </mxGeometry>
        </mxCell>
        <mxCell id="iwPpwcAJchl694mHt0z0-7" value="&lt;font style=&quot;font-size: 14px;&quot;&gt;&amp;nbsp; print(chr(a),end=&#39;&#39;)&lt;/font&gt;&lt;div&gt;&lt;font size=&quot;3&quot;&gt;in row&lt;/font&gt;&lt;/div&gt;" style="shape=parallelogram;perimeter=parallelogramPerimeter;whiteSpace=wrap;html=1;fixedSize=1;fillColor=#A6A6A6;rounded=0;" vertex="1" parent="WIyWlLk6GJQsqaUBKTNV-1">
          <mxGeometry x="350" y="465" width="150" height="40" as="geometry" />
        </mxCell>
        <mxCell id="iwPpwcAJchl694mHt0z0-14" value="Print() in next row" style="shape=parallelogram;perimeter=parallelogramPerimeter;whiteSpace=wrap;html=1;fixedSize=1;fillColor=#A6A6A6;rounded=0;" vertex="1" parent="WIyWlLk6GJQsqaUBKTNV-1">
          <mxGeometry x="160" y="584" width="120" height="30" as="geometry" />
        </mxCell>
        <mxCell id="iwPpwcAJchl694mHt0z0-16" value="&lt;font style=&quot;font-size: 18px;&quot;&gt;Assign i=1&lt;/font&gt;&lt;div&gt;&lt;font style=&quot;font-size: 18px;&quot;&gt;a=65&lt;/font&gt;&lt;/div&gt;" style="rounded=0;whiteSpace=wrap;html=1;" vertex="1" parent="WIyWlLk6GJQsqaUBKTNV-1">
          <mxGeometry x="160" y="160" width="120" height="40" as="geometry" />
        </mxCell>
        <mxCell id="iwPpwcAJchl694mHt0z0-17" value="" style="endArrow=classic;html=1;rounded=0;entryX=0.5;entryY=0;entryDx=0;entryDy=0;exitX=0.5;exitY=1;exitDx=0;exitDy=0;" edge="1" parent="WIyWlLk6GJQsqaUBKTNV-1" source="iwPpwcAJchl694mHt0z0-0" target="iwPpwcAJchl694mHt0z0-16">
          <mxGeometry width="50" height="50" relative="1" as="geometry">
            <mxPoint x="310" y="170" as="sourcePoint" />
            <mxPoint x="360" y="120" as="targetPoint" />
          </mxGeometry>
        </mxCell>
        <mxCell id="iwPpwcAJchl694mHt0z0-18" value="" style="endArrow=classic;html=1;rounded=0;entryX=0.5;entryY=0;entryDx=0;entryDy=0;exitX=0.5;exitY=1;exitDx=0;exitDy=0;" edge="1" parent="WIyWlLk6GJQsqaUBKTNV-1" source="iwPpwcAJchl694mHt0z0-16" target="WIyWlLk6GJQsqaUBKTNV-6">
          <mxGeometry width="50" height="50" relative="1" as="geometry">
            <mxPoint x="310" y="170" as="sourcePoint" />
            <mxPoint x="360" y="120" as="targetPoint" />
          </mxGeometry>
        </mxCell>
        <mxCell id="iwPpwcAJchl694mHt0z0-20" value="&lt;font style=&quot;font-size: 18px;&quot;&gt;Assign j=i&lt;/font&gt;" style="rounded=0;whiteSpace=wrap;html=1;" vertex="1" parent="WIyWlLk6GJQsqaUBKTNV-1">
          <mxGeometry x="170" y="360" width="120" height="40" as="geometry" />
        </mxCell>
        <mxCell id="iwPpwcAJchl694mHt0z0-21" value="" style="endArrow=classic;html=1;rounded=0;entryX=0.416;entryY=0.055;entryDx=0;entryDy=0;exitX=0.5;exitY=1;exitDx=0;exitDy=0;entryPerimeter=0;" edge="1" parent="WIyWlLk6GJQsqaUBKTNV-1" source="WIyWlLk6GJQsqaUBKTNV-6" target="iwPpwcAJchl694mHt0z0-20">
          <mxGeometry width="50" height="50" relative="1" as="geometry">
            <mxPoint x="310" y="450" as="sourcePoint" />
            <mxPoint x="360" y="400" as="targetPoint" />
          </mxGeometry>
        </mxCell>
        <mxCell id="iwPpwcAJchl694mHt0z0-23" value="Yes" style="edgeLabel;html=1;align=center;verticalAlign=middle;resizable=0;points=[];rounded=0;" vertex="1" connectable="0" parent="iwPpwcAJchl694mHt0z0-21">
          <mxGeometry x="-0.2726" relative="1" as="geometry">
            <mxPoint as="offset" />
          </mxGeometry>
        </mxCell>
        <mxCell id="iwPpwcAJchl694mHt0z0-35" value="" style="endArrow=classic;html=1;rounded=0;exitX=1;exitY=0.5;exitDx=0;exitDy=0;" edge="1" parent="WIyWlLk6GJQsqaUBKTNV-1" source="iwPpwcAJchl694mHt0z0-29">
          <mxGeometry width="50" height="50" relative="1" as="geometry">
            <mxPoint x="600" y="390" as="sourcePoint" />
            <mxPoint x="220" y="440" as="targetPoint" />
            <Array as="points">
              <mxPoint x="560" y="612" />
              <mxPoint x="560" y="440" />
            </Array>
          </mxGeometry>
        </mxCell>
        <mxCell id="iwPpwcAJchl694mHt0z0-24" value="" style="endArrow=classic;html=1;rounded=0;entryX=0.5;entryY=0;entryDx=0;entryDy=0;" edge="1" parent="WIyWlLk6GJQsqaUBKTNV-1" target="WIyWlLk6GJQsqaUBKTNV-10">
          <mxGeometry width="50" height="50" relative="1" as="geometry">
            <mxPoint x="220" y="400" as="sourcePoint" />
            <mxPoint x="80" y="420" as="targetPoint" />
          </mxGeometry>
        </mxCell>
        <mxCell id="iwPpwcAJchl694mHt0z0-25" value="" style="endArrow=classic;html=1;rounded=0;exitX=0.5;exitY=1;exitDx=0;exitDy=0;" edge="1" parent="WIyWlLk6GJQsqaUBKTNV-1" source="WIyWlLk6GJQsqaUBKTNV-10">
          <mxGeometry width="50" height="50" relative="1" as="geometry">
            <mxPoint x="260" y="430" as="sourcePoint" />
            <mxPoint x="220" y="580" as="targetPoint" />
          </mxGeometry>
        </mxCell>
        <mxCell id="iwPpwcAJchl694mHt0z0-26" value="No" style="edgeLabel;html=1;align=center;verticalAlign=middle;resizable=0;points=[];rounded=0;" vertex="1" connectable="0" parent="iwPpwcAJchl694mHt0z0-25">
          <mxGeometry x="-0.1476" relative="1" as="geometry">
            <mxPoint as="offset" />
          </mxGeometry>
        </mxCell>
        <mxCell id="iwPpwcAJchl694mHt0z0-36" value="" style="endArrow=classic;html=1;rounded=0;exitX=0;exitY=0.5;exitDx=0;exitDy=0;" edge="1" parent="WIyWlLk6GJQsqaUBKTNV-1" source="iwPpwcAJchl694mHt0z0-30">
          <mxGeometry width="50" height="50" relative="1" as="geometry">
            <mxPoint x="600" y="390" as="sourcePoint" />
            <mxPoint x="220" y="240" as="targetPoint" />
            <Array as="points">
              <mxPoint x="80" y="728" />
              <mxPoint x="80" y="280" />
              <mxPoint x="80" y="240" />
            </Array>
          </mxGeometry>
        </mxCell>
        <mxCell id="iwPpwcAJchl694mHt0z0-29" value="&lt;font style=&quot;font-size: 18px;&quot;&gt;j+=1&lt;/font&gt;" style="rounded=0;whiteSpace=wrap;html=1;" vertex="1" parent="WIyWlLk6GJQsqaUBKTNV-1">
          <mxGeometry x="350" y="594" width="110" height="36" as="geometry" />
        </mxCell>
        <mxCell id="iwPpwcAJchl694mHt0z0-30" value="&lt;font style=&quot;font-size: 18px;&quot;&gt;i+=1&lt;/font&gt;" style="rounded=0;whiteSpace=wrap;html=1;" vertex="1" parent="WIyWlLk6GJQsqaUBKTNV-1">
          <mxGeometry x="165" y="710" width="110" height="36" as="geometry" />
        </mxCell>
        <mxCell id="iwPpwcAJchl694mHt0z0-31" value="" style="endArrow=classic;html=1;rounded=0;entryX=0.5;entryY=0;entryDx=0;entryDy=0;exitX=0.5;exitY=1;exitDx=0;exitDy=0;" edge="1" parent="WIyWlLk6GJQsqaUBKTNV-1" source="iwPpwcAJchl694mHt0z0-14" target="iwPpwcAJchl694mHt0z0-30">
          <mxGeometry width="50" height="50" relative="1" as="geometry">
            <mxPoint x="480" y="600" as="sourcePoint" />
            <mxPoint x="530" y="550" as="targetPoint" />
          </mxGeometry>
        </mxCell>
        <mxCell id="iwPpwcAJchl694mHt0z0-33" value="" style="endArrow=classic;html=1;rounded=0;" edge="1" parent="WIyWlLk6GJQsqaUBKTNV-1">
          <mxGeometry width="50" height="50" relative="1" as="geometry">
            <mxPoint x="400" y="510" as="sourcePoint" />
            <mxPoint x="400" y="590" as="targetPoint" />
          </mxGeometry>
        </mxCell>
        <mxCell id="iwPpwcAJchl694mHt0z0-40" value="&lt;font style=&quot;font-size: 18px;&quot;&gt;End&lt;/font&gt;" style="strokeWidth=2;html=1;shape=mxgraph.flowchart.terminator;whiteSpace=wrap;fillColor=#A6A6A6;rounded=0;" vertex="1" parent="WIyWlLk6GJQsqaUBKTNV-1">
          <mxGeometry x="364" y="260" width="100" height="40" as="geometry" />
        </mxCell>
        <mxCell id="iwPpwcAJchl694mHt0z0-39" value="&lt;font style=&quot;font-size: 18px;&quot;&gt;Start&lt;/font&gt;" style="strokeWidth=2;html=1;shape=mxgraph.flowchart.terminator;whiteSpace=wrap;fillColor=#A6A6A6;rounded=0;" vertex="1" parent="WIyWlLk6GJQsqaUBKTNV-1">
          <mxGeometry x="170" width="100" height="40" as="geometry" />
        </mxCell>
        <mxCell id="iwPpwcAJchl694mHt0z0-43" value="&lt;span style=&quot;font-size: 36px;&quot;&gt;&amp;nbsp; &amp;nbsp; &amp;nbsp; &amp;nbsp;AAAA&lt;/span&gt;&lt;div&gt;&lt;span style=&quot;font-size: 36px; background-color: initial;&quot;&gt;&amp;nbsp; &amp;nbsp; BBB&lt;/span&gt;&lt;/div&gt;&lt;div&gt;&lt;span style=&quot;background-color: initial; font-size: 36px;&quot;&gt;&amp;nbsp; CC&lt;/span&gt;&lt;/div&gt;&lt;div&gt;&lt;span style=&quot;font-size: 36px; background-color: initial;&quot;&gt;D&lt;/span&gt;&lt;/div&gt;" style="whiteSpace=wrap;html=1;aspect=fixed;rounded=0;" vertex="1" parent="WIyWlLk6GJQsqaUBKTNV-1">
          <mxGeometry x="550" y="15" width="185" height="185" as="geometry" />
        </mxCell>
        <mxCell id="iwPpwcAJchl694mHt0z0-90" style="edgeStyle=orthogonalEdgeStyle;orthogonalLoop=1;jettySize=auto;html=1;exitX=0.5;exitY=1;exitDx=0;exitDy=0;fillColor=#CCCCCC;" edge="1" parent="WIyWlLk6GJQsqaUBKTNV-1" source="iwPpwcAJchl694mHt0z0-49" target="iwPpwcAJchl694mHt0z0-73">
          <mxGeometry relative="1" as="geometry" />
        </mxCell>
        <mxCell id="iwPpwcAJchl694mHt0z0-49" value="Input&amp;nbsp; a number" style="shape=parallelogram;perimeter=parallelogramPerimeter;whiteSpace=wrap;html=1;fixedSize=1;fillColor=#CCCCCC;rounded=0;" vertex="1" parent="WIyWlLk6GJQsqaUBKTNV-1">
          <mxGeometry x="165" y="-1000" width="125" height="40" as="geometry" />
        </mxCell>
        <mxCell id="iwPpwcAJchl694mHt0z0-50" value="" style="rounded=0;html=1;jettySize=auto;orthogonalLoop=1;fontSize=11;endArrow=block;endFill=0;endSize=8;strokeWidth=1;shadow=0;labelBackgroundColor=none;edgeStyle=orthogonalEdgeStyle;fillColor=#CCCCCC;" edge="1" parent="WIyWlLk6GJQsqaUBKTNV-1">
          <mxGeometry relative="1" as="geometry">
            <mxPoint x="224.44" y="-1050" as="sourcePoint" />
            <mxPoint x="224.44" y="-1000" as="targetPoint" />
          </mxGeometry>
        </mxCell>
        <mxCell id="iwPpwcAJchl694mHt0z0-68" value="&lt;font style=&quot;font-size: 18px;&quot;&gt;Start&lt;/font&gt;" style="strokeWidth=2;html=1;shape=mxgraph.flowchart.terminator;whiteSpace=wrap;fillColor=#CCCCCC;rounded=0;" vertex="1" parent="WIyWlLk6GJQsqaUBKTNV-1">
          <mxGeometry x="175" y="-1090" width="100" height="40" as="geometry" />
        </mxCell>
        <mxCell id="iwPpwcAJchl694mHt0z0-69" value="&lt;span style=&quot;font-size: 36px;&quot;&gt;a=5&lt;/span&gt;&lt;div&gt;&lt;span style=&quot;font-size: 36px;&quot;&gt;a is odd&lt;/span&gt;&lt;/div&gt;" style="whiteSpace=wrap;html=1;aspect=fixed;rounded=0;" vertex="1" parent="WIyWlLk6GJQsqaUBKTNV-1">
          <mxGeometry x="500" y="-1100" width="205" height="205" as="geometry" />
        </mxCell>
        <mxCell id="iwPpwcAJchl694mHt0z0-72" value="End" style="strokeWidth=2;html=1;shape=mxgraph.flowchart.terminator;whiteSpace=wrap;fillColor=#CCCCCC;" vertex="1" parent="WIyWlLk6GJQsqaUBKTNV-1">
          <mxGeometry x="340" y="-780" width="100" height="30" as="geometry" />
        </mxCell>
        <mxCell id="iwPpwcAJchl694mHt0z0-76" style="edgeStyle=orthogonalEdgeStyle;orthogonalLoop=1;jettySize=auto;html=1;exitX=0.5;exitY=1;exitDx=0;exitDy=0;entryX=0.392;entryY=0.015;entryDx=0;entryDy=0;fillColor=#CCCCCC;entryPerimeter=0;" edge="1" parent="WIyWlLk6GJQsqaUBKTNV-1" source="iwPpwcAJchl694mHt0z0-73" target="iwPpwcAJchl694mHt0z0-97">
          <mxGeometry relative="1" as="geometry">
            <mxPoint x="220" y="-799.9999999999999" as="targetPoint" />
          </mxGeometry>
        </mxCell>
        <mxCell id="iwPpwcAJchl694mHt0z0-78" value="No" style="edgeLabel;html=1;align=center;verticalAlign=middle;resizable=0;points=[];fillColor=#CCCCCC;" vertex="1" connectable="0" parent="iwPpwcAJchl694mHt0z0-76">
          <mxGeometry x="-0.318" y="-3" relative="1" as="geometry">
            <mxPoint x="3" y="8" as="offset" />
          </mxGeometry>
        </mxCell>
        <mxCell id="iwPpwcAJchl694mHt0z0-99" style="edgeStyle=orthogonalEdgeStyle;orthogonalLoop=1;jettySize=auto;html=1;exitX=1;exitY=0.5;exitDx=0;exitDy=0;entryX=0;entryY=0.5;entryDx=0;entryDy=0;" edge="1" parent="WIyWlLk6GJQsqaUBKTNV-1" source="iwPpwcAJchl694mHt0z0-73" target="iwPpwcAJchl694mHt0z0-95">
          <mxGeometry relative="1" as="geometry" />
        </mxCell>
        <mxCell id="iwPpwcAJchl694mHt0z0-73" value="number%2==0" style="rhombus;whiteSpace=wrap;html=1;fillColor=#CCCCCC;" vertex="1" parent="WIyWlLk6GJQsqaUBKTNV-1">
          <mxGeometry x="172.5" y="-920" width="110" height="100" as="geometry" />
        </mxCell>
        <mxCell id="iwPpwcAJchl694mHt0z0-95" value="Print number&amp;nbsp;&lt;div&gt;&amp;nbsp;is even&lt;/div&gt;" style="shape=parallelogram;perimeter=parallelogramPerimeter;whiteSpace=wrap;html=1;fixedSize=1;" vertex="1" parent="WIyWlLk6GJQsqaUBKTNV-1">
          <mxGeometry x="330" y="-885" width="120" height="30" as="geometry" />
        </mxCell>
        <mxCell id="iwPpwcAJchl694mHt0z0-100" style="edgeStyle=orthogonalEdgeStyle;orthogonalLoop=1;jettySize=auto;html=1;" edge="1" parent="WIyWlLk6GJQsqaUBKTNV-1" source="iwPpwcAJchl694mHt0z0-97" target="iwPpwcAJchl694mHt0z0-72">
          <mxGeometry relative="1" as="geometry" />
        </mxCell>
        <mxCell id="iwPpwcAJchl694mHt0z0-97" value="Print number&lt;div&gt;&amp;nbsp;is odd&lt;/div&gt;" style="shape=parallelogram;perimeter=parallelogramPerimeter;whiteSpace=wrap;html=1;fixedSize=1;" vertex="1" parent="WIyWlLk6GJQsqaUBKTNV-1">
          <mxGeometry x="180" y="-780" width="120" height="30" as="geometry" />
        </mxCell>
        <mxCell id="iwPpwcAJchl694mHt0z0-101" style="edgeStyle=orthogonalEdgeStyle;orthogonalLoop=1;jettySize=auto;html=1;exitX=0.5;exitY=1;exitDx=0;exitDy=0;entryX=0.5;entryY=0;entryDx=0;entryDy=0;entryPerimeter=0;" edge="1" parent="WIyWlLk6GJQsqaUBKTNV-1" source="iwPpwcAJchl694mHt0z0-95" target="iwPpwcAJchl694mHt0z0-72">
          <mxGeometry relative="1" as="geometry" />
        </mxCell>
        <mxCell id="iwPpwcAJchl694mHt0z0-154" style="edgeStyle=orthogonalEdgeStyle;orthogonalLoop=1;jettySize=auto;html=1;exitX=0.5;exitY=1;exitDx=0;exitDy=0;fillColor=#CCCCCC;" edge="1" parent="WIyWlLk6GJQsqaUBKTNV-1" source="iwPpwcAJchl694mHt0z0-155" target="iwPpwcAJchl694mHt0z0-163">
          <mxGeometry relative="1" as="geometry" />
        </mxCell>
        <mxCell id="iwPpwcAJchl694mHt0z0-155" value="input a number n" style="shape=parallelogram;perimeter=parallelogramPerimeter;whiteSpace=wrap;html=1;fixedSize=1;fillColor=#CCCCCC;rounded=0;" vertex="1" parent="WIyWlLk6GJQsqaUBKTNV-1">
          <mxGeometry x="126" y="-2140" width="125" height="40" as="geometry" />
        </mxCell>
        <mxCell id="iwPpwcAJchl694mHt0z0-156" value="" style="rounded=0;html=1;jettySize=auto;orthogonalLoop=1;fontSize=11;endArrow=block;endFill=0;endSize=8;strokeWidth=1;shadow=0;labelBackgroundColor=none;edgeStyle=orthogonalEdgeStyle;fillColor=#CCCCCC;" edge="1" parent="WIyWlLk6GJQsqaUBKTNV-1">
          <mxGeometry relative="1" as="geometry">
            <mxPoint x="185.44" y="-2190" as="sourcePoint" />
            <mxPoint x="185.44" y="-2140" as="targetPoint" />
          </mxGeometry>
        </mxCell>
        <mxCell id="iwPpwcAJchl694mHt0z0-158" value="&lt;font style=&quot;font-size: 18px;&quot;&gt;Start&lt;/font&gt;" style="strokeWidth=2;html=1;shape=mxgraph.flowchart.terminator;whiteSpace=wrap;fillColor=#CCCCCC;rounded=0;" vertex="1" parent="WIyWlLk6GJQsqaUBKTNV-1">
          <mxGeometry x="136" y="-2230" width="100" height="40" as="geometry" />
        </mxCell>
        <mxCell id="iwPpwcAJchl694mHt0z0-159" style="edgeStyle=orthogonalEdgeStyle;orthogonalLoop=1;jettySize=auto;html=1;exitX=0.5;exitY=1;exitDx=0;exitDy=0;entryX=0.5;entryY=0;entryDx=0;entryDy=0;fillColor=#CCCCCC;" edge="1" parent="WIyWlLk6GJQsqaUBKTNV-1" source="iwPpwcAJchl694mHt0z0-163" target="iwPpwcAJchl694mHt0z0-168">
          <mxGeometry relative="1" as="geometry" />
        </mxCell>
        <mxCell id="iwPpwcAJchl694mHt0z0-160" value="No" style="edgeLabel;html=1;align=center;verticalAlign=middle;resizable=0;points=[];fillColor=#CCCCCC;" vertex="1" connectable="0" parent="iwPpwcAJchl694mHt0z0-159">
          <mxGeometry x="-0.318" y="-3" relative="1" as="geometry">
            <mxPoint as="offset" />
          </mxGeometry>
        </mxCell>
        <mxCell id="iwPpwcAJchl694mHt0z0-161" style="edgeStyle=orthogonalEdgeStyle;orthogonalLoop=1;jettySize=auto;html=1;exitX=1;exitY=0.5;exitDx=0;exitDy=0;entryX=0;entryY=0.5;entryDx=0;entryDy=0;fillColor=#CCCCCC;" edge="1" parent="WIyWlLk6GJQsqaUBKTNV-1" source="iwPpwcAJchl694mHt0z0-163">
          <mxGeometry relative="1" as="geometry">
            <mxPoint x="271" y="-2020" as="targetPoint" />
          </mxGeometry>
        </mxCell>
        <mxCell id="iwPpwcAJchl694mHt0z0-162" value="Yes" style="edgeLabel;html=1;align=center;verticalAlign=middle;resizable=0;points=[];fillColor=#CCCCCC;" vertex="1" connectable="0" parent="iwPpwcAJchl694mHt0z0-161">
          <mxGeometry x="0.0414" y="-3" relative="1" as="geometry">
            <mxPoint as="offset" />
          </mxGeometry>
        </mxCell>
        <mxCell id="iwPpwcAJchl694mHt0z0-163" value="n&amp;gt;10" style="rhombus;whiteSpace=wrap;html=1;fillColor=#CCCCCC;" vertex="1" parent="WIyWlLk6GJQsqaUBKTNV-1">
          <mxGeometry x="141" y="-2065" width="80" height="80" as="geometry" />
        </mxCell>
        <mxCell id="iwPpwcAJchl694mHt0z0-164" style="edgeStyle=orthogonalEdgeStyle;orthogonalLoop=1;jettySize=auto;html=1;entryX=0.5;entryY=0;entryDx=0;entryDy=0;fillColor=#CCCCCC;" edge="1" parent="WIyWlLk6GJQsqaUBKTNV-1" source="iwPpwcAJchl694mHt0z0-168" target="iwPpwcAJchl694mHt0z0-171">
          <mxGeometry relative="1" as="geometry" />
        </mxCell>
        <mxCell id="iwPpwcAJchl694mHt0z0-165" value="No" style="edgeLabel;html=1;align=center;verticalAlign=middle;resizable=0;points=[];fillColor=#CCCCCC;" vertex="1" connectable="0" parent="iwPpwcAJchl694mHt0z0-164">
          <mxGeometry x="-0.2611" y="1" relative="1" as="geometry">
            <mxPoint as="offset" />
          </mxGeometry>
        </mxCell>
        <mxCell id="iwPpwcAJchl694mHt0z0-166" style="edgeStyle=orthogonalEdgeStyle;orthogonalLoop=1;jettySize=auto;html=1;exitX=1;exitY=0.5;exitDx=0;exitDy=0;entryX=0;entryY=0.5;entryDx=0;entryDy=0;fillColor=#CCCCCC;" edge="1" parent="WIyWlLk6GJQsqaUBKTNV-1" source="iwPpwcAJchl694mHt0z0-168">
          <mxGeometry relative="1" as="geometry">
            <mxPoint x="271" y="-1900" as="targetPoint" />
          </mxGeometry>
        </mxCell>
        <mxCell id="iwPpwcAJchl694mHt0z0-167" value="Yes" style="edgeLabel;html=1;align=center;verticalAlign=middle;resizable=0;points=[];fillColor=#CCCCCC;" vertex="1" connectable="0" parent="iwPpwcAJchl694mHt0z0-166">
          <mxGeometry x="-0.2248" y="1" relative="1" as="geometry">
            <mxPoint as="offset" />
          </mxGeometry>
        </mxCell>
        <mxCell id="iwPpwcAJchl694mHt0z0-168" value="n&amp;gt;=5" style="rhombus;whiteSpace=wrap;html=1;fillColor=#CCCCCC;" vertex="1" parent="WIyWlLk6GJQsqaUBKTNV-1">
          <mxGeometry x="141" y="-1940" width="80" height="80" as="geometry" />
        </mxCell>
        <mxCell id="iwPpwcAJchl694mHt0z0-169" style="edgeStyle=orthogonalEdgeStyle;orthogonalLoop=1;jettySize=auto;html=1;exitX=1;exitY=0.5;exitDx=0;exitDy=0;entryX=0;entryY=0.5;entryDx=0;entryDy=0;fillColor=#CCCCCC;" edge="1" parent="WIyWlLk6GJQsqaUBKTNV-1" source="iwPpwcAJchl694mHt0z0-171">
          <mxGeometry relative="1" as="geometry">
            <mxPoint x="271" y="-1764" as="targetPoint" />
          </mxGeometry>
        </mxCell>
        <mxCell id="iwPpwcAJchl694mHt0z0-170" value="Yes" style="edgeLabel;html=1;align=center;verticalAlign=middle;resizable=0;points=[];fillColor=#CCCCCC;" vertex="1" connectable="0" parent="iwPpwcAJchl694mHt0z0-169">
          <mxGeometry x="-0.28" relative="1" as="geometry">
            <mxPoint as="offset" />
          </mxGeometry>
        </mxCell>
        <mxCell id="iwPpwcAJchl694mHt0z0-171" value="n&amp;gt;0" style="rhombus;whiteSpace=wrap;html=1;fillColor=#CCCCCC;" vertex="1" parent="WIyWlLk6GJQsqaUBKTNV-1">
          <mxGeometry x="141" y="-1804" width="80" height="80" as="geometry" />
        </mxCell>
        <mxCell id="iwPpwcAJchl694mHt0z0-172" style="edgeStyle=orthogonalEdgeStyle;orthogonalLoop=1;jettySize=auto;html=1;fillColor=#CCCCCC;exitX=1;exitY=0.5;exitDx=0;exitDy=0;" edge="1" parent="WIyWlLk6GJQsqaUBKTNV-1" source="iwPpwcAJchl694mHt0z0-205">
          <mxGeometry relative="1" as="geometry">
            <mxPoint x="491" y="-1900" as="targetPoint" />
            <mxPoint x="391" y="-1900" as="sourcePoint" />
          </mxGeometry>
        </mxCell>
        <mxCell id="iwPpwcAJchl694mHt0z0-175" style="edgeStyle=orthogonalEdgeStyle;orthogonalLoop=1;jettySize=auto;html=1;exitX=0.5;exitY=1;exitDx=0;exitDy=0;entryX=0.587;entryY=0.993;entryDx=0;entryDy=0;entryPerimeter=0;fillColor=#CCCCCC;" edge="1" parent="WIyWlLk6GJQsqaUBKTNV-1" source="iwPpwcAJchl694mHt0z0-171">
          <mxGeometry relative="1" as="geometry">
            <mxPoint x="550" y="-1885" as="targetPoint" />
            <Array as="points">
              <mxPoint x="181" y="-1660" />
              <mxPoint x="550" y="-1660" />
            </Array>
          </mxGeometry>
        </mxCell>
        <mxCell id="iwPpwcAJchl694mHt0z0-176" value="No" style="edgeLabel;html=1;align=center;verticalAlign=middle;resizable=0;points=[];fillColor=#CCCCCC;" vertex="1" connectable="0" parent="iwPpwcAJchl694mHt0z0-175">
          <mxGeometry x="-0.1089" y="3" relative="1" as="geometry">
            <mxPoint as="offset" />
          </mxGeometry>
        </mxCell>
        <mxCell id="iwPpwcAJchl694mHt0z0-177" style="edgeStyle=orthogonalEdgeStyle;orthogonalLoop=1;jettySize=auto;html=1;entryX=0.5;entryY=0;entryDx=0;entryDy=0;entryPerimeter=0;fillColor=#CCCCCC;exitX=1;exitY=0.5;exitDx=0;exitDy=0;" edge="1" parent="WIyWlLk6GJQsqaUBKTNV-1" source="iwPpwcAJchl694mHt0z0-203">
          <mxGeometry relative="1" as="geometry">
            <mxPoint x="541" y="-1915" as="targetPoint" />
            <mxPoint x="391" y="-2020" as="sourcePoint" />
          </mxGeometry>
        </mxCell>
        <mxCell id="iwPpwcAJchl694mHt0z0-203" value="print red" style="shape=parallelogram;perimeter=parallelogramPerimeter;whiteSpace=wrap;html=1;fixedSize=1;fillColor=#A6A6A6;rounded=0;" vertex="1" parent="WIyWlLk6GJQsqaUBKTNV-1">
          <mxGeometry x="260" y="-2030" width="120" height="30" as="geometry" />
        </mxCell>
        <mxCell id="iwPpwcAJchl694mHt0z0-205" value="print yellow" style="shape=parallelogram;perimeter=parallelogramPerimeter;whiteSpace=wrap;html=1;fixedSize=1;fillColor=#A6A6A6;rounded=0;" vertex="1" parent="WIyWlLk6GJQsqaUBKTNV-1">
          <mxGeometry x="270" y="-1915" width="120" height="30" as="geometry" />
        </mxCell>
        <mxCell id="iwPpwcAJchl694mHt0z0-206" value="print green" style="shape=parallelogram;perimeter=parallelogramPerimeter;whiteSpace=wrap;html=1;fixedSize=1;fillColor=#A6A6A6;rounded=0;" vertex="1" parent="WIyWlLk6GJQsqaUBKTNV-1">
          <mxGeometry x="260" y="-1779" width="120" height="30" as="geometry" />
        </mxCell>
        <mxCell id="iwPpwcAJchl694mHt0z0-207" value="End" style="strokeWidth=2;html=1;shape=mxgraph.flowchart.terminator;whiteSpace=wrap;fillColor=#CCCCCC;" vertex="1" parent="WIyWlLk6GJQsqaUBKTNV-1">
          <mxGeometry x="490" y="-1915" width="100" height="30" as="geometry" />
        </mxCell>
        <mxCell id="iwPpwcAJchl694mHt0z0-208" value="&lt;span style=&quot;font-size: 36px;&quot;&gt;a=12&lt;/span&gt;&lt;div&gt;&lt;span style=&quot;font-size: 36px;&quot;&gt;red&lt;/span&gt;&lt;/div&gt;" style="whiteSpace=wrap;html=1;aspect=fixed;rounded=0;" vertex="1" parent="WIyWlLk6GJQsqaUBKTNV-1">
          <mxGeometry x="385" y="-2260" width="205" height="205" as="geometry" />
        </mxCell>
      </root>
    </mxGraphModel>
  </diagram>
  <diagram id="oR9Giga1KFvVvcP9VWnN" name="Page-2">
    <mxGraphModel grid="1" page="1" gridSize="10" guides="1" tooltips="1" connect="1" arrows="1" fold="1" pageScale="1" pageWidth="827" pageHeight="1169" math="0" shadow="0">
      <root>
        <mxCell id="0" />
        <mxCell id="1" parent="0" />
        <mxCell id="CJoJjP_8Ru8g5Yvkgxle-1" style="edgeStyle=orthogonalEdgeStyle;orthogonalLoop=1;jettySize=auto;html=1;exitX=0.5;exitY=1;exitDx=0;exitDy=0;fillColor=#CCCCCC;" edge="1" parent="1" source="CJoJjP_8Ru8g5Yvkgxle-16" target="CJoJjP_8Ru8g5Yvkgxle-10">
          <mxGeometry relative="1" as="geometry" />
        </mxCell>
        <mxCell id="CJoJjP_8Ru8g5Yvkgxle-2" value="Input&amp;nbsp; a number &#39;a&#39;" style="shape=parallelogram;perimeter=parallelogramPerimeter;whiteSpace=wrap;html=1;fixedSize=1;fillColor=#CCCCCC;rounded=0;" vertex="1" parent="1">
          <mxGeometry x="165" y="-1000" width="125" height="40" as="geometry" />
        </mxCell>
        <mxCell id="CJoJjP_8Ru8g5Yvkgxle-3" value="" style="rounded=0;html=1;jettySize=auto;orthogonalLoop=1;fontSize=11;endArrow=block;endFill=0;endSize=8;strokeWidth=1;shadow=0;labelBackgroundColor=none;edgeStyle=orthogonalEdgeStyle;fillColor=#CCCCCC;" edge="1" parent="1">
          <mxGeometry relative="1" as="geometry">
            <mxPoint x="224.44" y="-1050" as="sourcePoint" />
            <mxPoint x="224.44" y="-1000" as="targetPoint" />
          </mxGeometry>
        </mxCell>
        <mxCell id="CJoJjP_8Ru8g5Yvkgxle-4" value="&lt;font style=&quot;font-size: 18px;&quot;&gt;Start&lt;/font&gt;" style="strokeWidth=2;html=1;shape=mxgraph.flowchart.terminator;whiteSpace=wrap;fillColor=#CCCCCC;rounded=0;" vertex="1" parent="1">
          <mxGeometry x="175" y="-1090" width="100" height="40" as="geometry" />
        </mxCell>
        <mxCell id="CJoJjP_8Ru8g5Yvkgxle-5" value="&lt;span style=&quot;font-size: 36px;&quot;&gt;a=7&lt;/span&gt;&lt;div&gt;&lt;span style=&quot;font-size: 36px;&quot;&gt;a is prime&amp;nbsp;&lt;/span&gt;&lt;/div&gt;" style="whiteSpace=wrap;html=1;aspect=fixed;rounded=0;" vertex="1" parent="1">
          <mxGeometry x="500" y="-1100" width="205" height="205" as="geometry" />
        </mxCell>
        <mxCell id="CJoJjP_8Ru8g5Yvkgxle-6" value="End" style="strokeWidth=2;html=1;shape=mxgraph.flowchart.terminator;whiteSpace=wrap;fillColor=#CCCCCC;" vertex="1" parent="1">
          <mxGeometry x="342.5" y="-660" width="100" height="30" as="geometry" />
        </mxCell>
        <mxCell id="CJoJjP_8Ru8g5Yvkgxle-7" style="edgeStyle=orthogonalEdgeStyle;orthogonalLoop=1;jettySize=auto;html=1;exitX=0.5;exitY=1;exitDx=0;exitDy=0;entryX=0.392;entryY=0.015;entryDx=0;entryDy=0;fillColor=#CCCCCC;entryPerimeter=0;" edge="1" parent="1" source="CJoJjP_8Ru8g5Yvkgxle-10" target="CJoJjP_8Ru8g5Yvkgxle-13">
          <mxGeometry relative="1" as="geometry">
            <mxPoint x="222.5" y="-679.9999999999999" as="targetPoint" />
          </mxGeometry>
        </mxCell>
        <mxCell id="CJoJjP_8Ru8g5Yvkgxle-8" value="No" style="edgeLabel;html=1;align=center;verticalAlign=middle;resizable=0;points=[];fillColor=#CCCCCC;" vertex="1" connectable="0" parent="CJoJjP_8Ru8g5Yvkgxle-7">
          <mxGeometry x="-0.318" y="-3" relative="1" as="geometry">
            <mxPoint x="3" y="8" as="offset" />
          </mxGeometry>
        </mxCell>
        <mxCell id="CJoJjP_8Ru8g5Yvkgxle-9" style="edgeStyle=orthogonalEdgeStyle;orthogonalLoop=1;jettySize=auto;html=1;exitX=1;exitY=0.5;exitDx=0;exitDy=0;entryX=0;entryY=0.5;entryDx=0;entryDy=0;" edge="1" parent="1" source="CJoJjP_8Ru8g5Yvkgxle-10" target="CJoJjP_8Ru8g5Yvkgxle-11">
          <mxGeometry relative="1" as="geometry" />
        </mxCell>
        <mxCell id="Awz8DCnehJRcIdlJegWH-5" value="yes" style="edgeLabel;html=1;align=center;verticalAlign=middle;resizable=0;points=[];" vertex="1" connectable="0" parent="CJoJjP_8Ru8g5Yvkgxle-9">
          <mxGeometry x="-0.5639" y="2" relative="1" as="geometry">
            <mxPoint as="offset" />
          </mxGeometry>
        </mxCell>
        <mxCell id="CJoJjP_8Ru8g5Yvkgxle-10" value="a%i==0&lt;div&gt;i&amp;lt;a&lt;/div&gt;" style="rhombus;whiteSpace=wrap;html=1;fillColor=#CCCCCC;" vertex="1" parent="1">
          <mxGeometry x="175" y="-800" width="110" height="100" as="geometry" />
        </mxCell>
        <mxCell id="CJoJjP_8Ru8g5Yvkgxle-11" value="Print number&amp;nbsp;&lt;div&gt;&amp;nbsp;is prime&lt;/div&gt;" style="shape=parallelogram;perimeter=parallelogramPerimeter;whiteSpace=wrap;html=1;fixedSize=1;" vertex="1" parent="1">
          <mxGeometry x="460" y="-765" width="120" height="30" as="geometry" />
        </mxCell>
        <mxCell id="CJoJjP_8Ru8g5Yvkgxle-12" style="edgeStyle=orthogonalEdgeStyle;orthogonalLoop=1;jettySize=auto;html=1;" edge="1" parent="1" source="CJoJjP_8Ru8g5Yvkgxle-13" target="CJoJjP_8Ru8g5Yvkgxle-6">
          <mxGeometry relative="1" as="geometry" />
        </mxCell>
        <mxCell id="CJoJjP_8Ru8g5Yvkgxle-13" value="Print number&lt;div&gt;&amp;nbsp;is odd&lt;/div&gt;" style="shape=parallelogram;perimeter=parallelogramPerimeter;whiteSpace=wrap;html=1;fixedSize=1;" vertex="1" parent="1">
          <mxGeometry x="182.5" y="-660" width="120" height="30" as="geometry" />
        </mxCell>
        <mxCell id="CJoJjP_8Ru8g5Yvkgxle-14" style="edgeStyle=orthogonalEdgeStyle;orthogonalLoop=1;jettySize=auto;html=1;exitX=0.5;exitY=1;exitDx=0;exitDy=0;entryX=0.5;entryY=0;entryDx=0;entryDy=0;entryPerimeter=0;" edge="1" parent="1" source="CJoJjP_8Ru8g5Yvkgxle-11" target="CJoJjP_8Ru8g5Yvkgxle-6">
          <mxGeometry relative="1" as="geometry" />
        </mxCell>
        <mxCell id="CJoJjP_8Ru8g5Yvkgxle-17" value="" style="edgeStyle=orthogonalEdgeStyle;orthogonalLoop=1;jettySize=auto;html=1;exitX=0.5;exitY=1;exitDx=0;exitDy=0;fillColor=#CCCCCC;" edge="1" parent="1" source="CJoJjP_8Ru8g5Yvkgxle-2" target="CJoJjP_8Ru8g5Yvkgxle-16">
          <mxGeometry relative="1" as="geometry">
            <mxPoint x="228" y="-960" as="sourcePoint" />
            <mxPoint x="230" y="-800" as="targetPoint" />
          </mxGeometry>
        </mxCell>
        <mxCell id="CJoJjP_8Ru8g5Yvkgxle-16" value="&lt;font style=&quot;font-size: 18px;&quot;&gt;assign i=2&lt;/font&gt;" style="rounded=0;whiteSpace=wrap;html=1;" vertex="1" parent="1">
          <mxGeometry x="178.75" y="-890" width="97.5" height="40" as="geometry" />
        </mxCell>
        <mxCell id="Awz8DCnehJRcIdlJegWH-1" value="i+=1" style="rounded=0;whiteSpace=wrap;html=1;" vertex="1" parent="1">
          <mxGeometry x="370" y="-765" width="52.5" height="30" as="geometry" />
        </mxCell>
        <mxCell id="Awz8DCnehJRcIdlJegWH-4" style="edgeStyle=orthogonalEdgeStyle;orthogonalLoop=1;jettySize=auto;html=1;entryX=0.574;entryY=0.02;entryDx=0;entryDy=0;entryPerimeter=0;" edge="1" parent="1" source="Awz8DCnehJRcIdlJegWH-1" target="CJoJjP_8Ru8g5Yvkgxle-10">
          <mxGeometry relative="1" as="geometry">
            <Array as="points">
              <mxPoint x="400" y="-798" />
            </Array>
          </mxGeometry>
        </mxCell>
      </root>
    </mxGraphModel>
  </diagram>
  <diagram id="bD9kf8rNfqfs6XAZqIka" name="Page-3">
    <mxGraphModel grid="1" page="1" gridSize="10" guides="1" tooltips="1" connect="1" arrows="1" fold="1" pageScale="1" pageWidth="827" pageHeight="1169" math="0" shadow="0">
      <root>
        <mxCell id="0" />
        <mxCell id="1" parent="0" />
        <mxCell id="yIcuOGKkOtXFXUcuZcm0-1" style="edgeStyle=orthogonalEdgeStyle;orthogonalLoop=1;jettySize=auto;html=1;exitX=0.5;exitY=1;exitDx=0;exitDy=0;fillColor=#CCCCCC;" edge="1" parent="1" target="yIcuOGKkOtXFXUcuZcm0-11">
          <mxGeometry relative="1" as="geometry">
            <mxPoint x="227.5" y="-850" as="sourcePoint" />
          </mxGeometry>
        </mxCell>
        <mxCell id="yIcuOGKkOtXFXUcuZcm0-2" value="Input&amp;nbsp; two number&lt;div&gt;n and m&amp;nbsp;&lt;/div&gt;" style="shape=parallelogram;perimeter=parallelogramPerimeter;whiteSpace=wrap;html=1;fixedSize=1;fillColor=#CCCCCC;rounded=0;" vertex="1" parent="1">
          <mxGeometry x="165" y="-1000" width="125" height="40" as="geometry" />
        </mxCell>
        <mxCell id="yIcuOGKkOtXFXUcuZcm0-3" value="" style="rounded=0;html=1;jettySize=auto;orthogonalLoop=1;fontSize=11;endArrow=block;endFill=0;endSize=8;strokeWidth=1;shadow=0;labelBackgroundColor=none;edgeStyle=orthogonalEdgeStyle;fillColor=#CCCCCC;" edge="1" parent="1">
          <mxGeometry relative="1" as="geometry">
            <mxPoint x="224.44" y="-1050" as="sourcePoint" />
            <mxPoint x="224.44" y="-1000" as="targetPoint" />
          </mxGeometry>
        </mxCell>
        <mxCell id="yIcuOGKkOtXFXUcuZcm0-4" value="&lt;font style=&quot;font-size: 18px;&quot;&gt;Start&lt;/font&gt;" style="strokeWidth=2;html=1;shape=mxgraph.flowchart.terminator;whiteSpace=wrap;fillColor=#CCCCCC;rounded=0;" vertex="1" parent="1">
          <mxGeometry x="175" y="-1090" width="100" height="40" as="geometry" />
        </mxCell>
        <mxCell id="yIcuOGKkOtXFXUcuZcm0-5" value="&lt;span style=&quot;font-size: 36px;&quot;&gt;n=2&lt;/span&gt;&lt;div&gt;&lt;span style=&quot;font-size: 36px;&quot;&gt;m=3&lt;/span&gt;&lt;/div&gt;&lt;div&gt;&lt;span style=&quot;font-size: 36px;&quot;&gt;&lt;br&gt;&lt;/span&gt;&lt;/div&gt;&lt;div&gt;&lt;span style=&quot;font-size: 36px;&quot;&gt;output:- 1&lt;/span&gt;&lt;/div&gt;" style="whiteSpace=wrap;html=1;aspect=fixed;rounded=0;" vertex="1" parent="1">
          <mxGeometry x="500" y="-1100" width="205" height="205" as="geometry" />
        </mxCell>
        <mxCell id="yIcuOGKkOtXFXUcuZcm0-6" value="End" style="strokeWidth=2;html=1;shape=mxgraph.flowchart.terminator;whiteSpace=wrap;fillColor=#CCCCCC;" vertex="1" parent="1">
          <mxGeometry x="370" y="-599" width="100" height="30" as="geometry" />
        </mxCell>
        <mxCell id="yIcuOGKkOtXFXUcuZcm0-9" style="edgeStyle=orthogonalEdgeStyle;orthogonalLoop=1;jettySize=auto;html=1;exitX=1;exitY=0.5;exitDx=0;exitDy=0;entryX=0.5;entryY=0;entryDx=0;entryDy=0;" edge="1" parent="1" source="yIcuOGKkOtXFXUcuZcm0-11" target="yIcuOGKkOtXFXUcuZcm0-12">
          <mxGeometry relative="1" as="geometry" />
        </mxCell>
        <mxCell id="yIcuOGKkOtXFXUcuZcm0-10" value="yes" style="edgeLabel;html=1;align=center;verticalAlign=middle;resizable=0;points=[];" vertex="1" connectable="0" parent="yIcuOGKkOtXFXUcuZcm0-9">
          <mxGeometry x="-0.5639" y="2" relative="1" as="geometry">
            <mxPoint as="offset" />
          </mxGeometry>
        </mxCell>
        <mxCell id="yIcuOGKkOtXFXUcuZcm0-41" style="edgeStyle=orthogonalEdgeStyle;orthogonalLoop=1;jettySize=auto;html=1;entryX=0.5;entryY=0;entryDx=0;entryDy=0;" edge="1" parent="1" source="yIcuOGKkOtXFXUcuZcm0-11" target="yIcuOGKkOtXFXUcuZcm0-40">
          <mxGeometry relative="1" as="geometry" />
        </mxCell>
        <mxCell id="yIcuOGKkOtXFXUcuZcm0-42" value="No" style="edgeLabel;html=1;align=center;verticalAlign=middle;resizable=0;points=[];" vertex="1" connectable="0" parent="yIcuOGKkOtXFXUcuZcm0-41">
          <mxGeometry x="-0.0398" relative="1" as="geometry">
            <mxPoint as="offset" />
          </mxGeometry>
        </mxCell>
        <mxCell id="yIcuOGKkOtXFXUcuZcm0-11" value="n%2==0" style="rhombus;whiteSpace=wrap;html=1;fillColor=#CCCCCC;" vertex="1" parent="1">
          <mxGeometry x="172.5" y="-900" width="110" height="100" as="geometry" />
        </mxCell>
        <mxCell id="yIcuOGKkOtXFXUcuZcm0-12" value="Print 1" style="shape=parallelogram;perimeter=parallelogramPerimeter;whiteSpace=wrap;html=1;fixedSize=1;" vertex="1" parent="1">
          <mxGeometry x="360" y="-725" width="120" height="30" as="geometry" />
        </mxCell>
        <mxCell id="yIcuOGKkOtXFXUcuZcm0-13" style="edgeStyle=orthogonalEdgeStyle;orthogonalLoop=1;jettySize=auto;html=1;" edge="1" parent="1" source="yIcuOGKkOtXFXUcuZcm0-14" target="yIcuOGKkOtXFXUcuZcm0-6">
          <mxGeometry relative="1" as="geometry" />
        </mxCell>
        <mxCell id="yIcuOGKkOtXFXUcuZcm0-14" value="Print 2" style="shape=parallelogram;perimeter=parallelogramPerimeter;whiteSpace=wrap;html=1;fixedSize=1;" vertex="1" parent="1">
          <mxGeometry x="165" y="-599" width="120" height="30" as="geometry" />
        </mxCell>
        <mxCell id="yIcuOGKkOtXFXUcuZcm0-15" style="edgeStyle=orthogonalEdgeStyle;orthogonalLoop=1;jettySize=auto;html=1;exitX=0.5;exitY=1;exitDx=0;exitDy=0;entryX=0.5;entryY=0;entryDx=0;entryDy=0;entryPerimeter=0;" edge="1" parent="1" source="yIcuOGKkOtXFXUcuZcm0-12" target="yIcuOGKkOtXFXUcuZcm0-6">
          <mxGeometry relative="1" as="geometry" />
        </mxCell>
        <mxCell id="yIcuOGKkOtXFXUcuZcm0-16" value="" style="edgeStyle=orthogonalEdgeStyle;orthogonalLoop=1;jettySize=auto;html=1;exitX=0.5;exitY=1;exitDx=0;exitDy=0;fillColor=#CCCCCC;" edge="1" parent="1" source="yIcuOGKkOtXFXUcuZcm0-2">
          <mxGeometry relative="1" as="geometry">
            <mxPoint x="228" y="-960" as="sourcePoint" />
            <mxPoint x="227.5999999999999" y="-890" as="targetPoint" />
          </mxGeometry>
        </mxCell>
        <mxCell id="yIcuOGKkOtXFXUcuZcm0-43" style="edgeStyle=orthogonalEdgeStyle;orthogonalLoop=1;jettySize=auto;html=1;exitX=1;exitY=0.5;exitDx=0;exitDy=0;" edge="1" parent="1" source="yIcuOGKkOtXFXUcuZcm0-40" target="yIcuOGKkOtXFXUcuZcm0-12">
          <mxGeometry relative="1" as="geometry" />
        </mxCell>
        <mxCell id="yIcuOGKkOtXFXUcuZcm0-44" value="Yes" style="edgeLabel;html=1;align=center;verticalAlign=middle;resizable=0;points=[];" vertex="1" connectable="0" parent="yIcuOGKkOtXFXUcuZcm0-43">
          <mxGeometry x="-0.1091" relative="1" as="geometry">
            <mxPoint as="offset" />
          </mxGeometry>
        </mxCell>
        <mxCell id="yIcuOGKkOtXFXUcuZcm0-40" value="m%2==0" style="rhombus;whiteSpace=wrap;html=1;fillColor=#CCCCCC;" vertex="1" parent="1">
          <mxGeometry x="175" y="-760" width="110" height="100" as="geometry" />
        </mxCell>
        <mxCell id="yIcuOGKkOtXFXUcuZcm0-45" style="edgeStyle=orthogonalEdgeStyle;orthogonalLoop=1;jettySize=auto;html=1;exitX=0.5;exitY=1;exitDx=0;exitDy=0;entryX=0.545;entryY=0.001;entryDx=0;entryDy=0;entryPerimeter=0;" edge="1" parent="1" source="yIcuOGKkOtXFXUcuZcm0-40" target="yIcuOGKkOtXFXUcuZcm0-14">
          <mxGeometry relative="1" as="geometry" />
        </mxCell>
        <mxCell id="yIcuOGKkOtXFXUcuZcm0-46" value="No" style="edgeLabel;html=1;align=center;verticalAlign=middle;resizable=0;points=[];" vertex="1" connectable="0" parent="yIcuOGKkOtXFXUcuZcm0-45">
          <mxGeometry x="-0.2049" relative="1" as="geometry">
            <mxPoint as="offset" />
          </mxGeometry>
        </mxCell>
      </root>
    </mxGraphModel>
  </diagram>
  <diagram id="YuqDRe9XRSuYLMO9N2Dc" name="Page-4">
    <mxGraphModel grid="1" page="1" gridSize="10" guides="1" tooltips="1" connect="1" arrows="1" fold="1" pageScale="1" pageWidth="827" pageHeight="1169" math="0" shadow="0">
      <root>
        <mxCell id="0" />
        <mxCell id="1" parent="0" />
        <mxCell id="-KGcdh5OTj6o3cFqSFtT-23" style="edgeStyle=orthogonalEdgeStyle;orthogonalLoop=1;jettySize=auto;html=1;exitX=0.5;exitY=1;exitDx=0;exitDy=0;entryX=0.46;entryY=-0.01;entryDx=0;entryDy=0;entryPerimeter=0;" edge="1" parent="1" source="-KGcdh5OTj6o3cFqSFtT-2" target="-KGcdh5OTj6o3cFqSFtT-22">
          <mxGeometry relative="1" as="geometry" />
        </mxCell>
        <mxCell id="-KGcdh5OTj6o3cFqSFtT-2" value="Input a , b and&lt;span style=&quot;background-color: initial;&quot;&gt;&amp;nbsp;n&lt;/span&gt;" style="shape=parallelogram;perimeter=parallelogramPerimeter;whiteSpace=wrap;html=1;fixedSize=1;fillColor=#CCCCCC;rounded=0;" vertex="1" parent="1">
          <mxGeometry x="145" y="-1010" width="160" height="50" as="geometry" />
        </mxCell>
        <mxCell id="-KGcdh5OTj6o3cFqSFtT-3" value="" style="rounded=0;html=1;jettySize=auto;orthogonalLoop=1;fontSize=11;endArrow=block;endFill=0;endSize=8;strokeWidth=1;shadow=0;labelBackgroundColor=none;edgeStyle=orthogonalEdgeStyle;fillColor=#CCCCCC;" edge="1" parent="1">
          <mxGeometry relative="1" as="geometry">
            <mxPoint x="224.44" y="-1050" as="sourcePoint" />
            <mxPoint x="224.44" y="-1000" as="targetPoint" />
          </mxGeometry>
        </mxCell>
        <mxCell id="-KGcdh5OTj6o3cFqSFtT-4" value="&lt;font style=&quot;font-size: 18px;&quot;&gt;Start&lt;/font&gt;" style="strokeWidth=2;html=1;shape=mxgraph.flowchart.terminator;whiteSpace=wrap;fillColor=#CCCCCC;rounded=0;" vertex="1" parent="1">
          <mxGeometry x="175" y="-1090" width="100" height="40" as="geometry" />
        </mxCell>
        <mxCell id="-KGcdh5OTj6o3cFqSFtT-5" value="&lt;span style=&quot;font-size: 36px;&quot;&gt;n=horror&lt;/span&gt;&lt;div&gt;&lt;span style=&quot;font-size: 36px;&quot;&gt;&lt;br&gt;&lt;/span&gt;&lt;/div&gt;&lt;div&gt;&lt;span style=&quot;font-size: 36px;&quot;&gt;output:= Netflix&lt;/span&gt;&lt;/div&gt;" style="whiteSpace=wrap;html=1;aspect=fixed;rounded=0;" vertex="1" parent="1">
          <mxGeometry x="500" y="-1100" width="205" height="205" as="geometry" />
        </mxCell>
        <mxCell id="-KGcdh5OTj6o3cFqSFtT-6" value="End" style="strokeWidth=2;html=1;shape=mxgraph.flowchart.terminator;whiteSpace=wrap;fillColor=#CCCCCC;" vertex="1" parent="1">
          <mxGeometry x="430" y="-649" width="100" height="30" as="geometry" />
        </mxCell>
        <mxCell id="-KGcdh5OTj6o3cFqSFtT-7" style="edgeStyle=orthogonalEdgeStyle;orthogonalLoop=1;jettySize=auto;html=1;exitX=1;exitY=0.5;exitDx=0;exitDy=0;entryX=0.5;entryY=0;entryDx=0;entryDy=0;" edge="1" parent="1" source="-KGcdh5OTj6o3cFqSFtT-11" target="-KGcdh5OTj6o3cFqSFtT-12">
          <mxGeometry relative="1" as="geometry" />
        </mxCell>
        <mxCell id="-KGcdh5OTj6o3cFqSFtT-8" value="yes" style="edgeLabel;html=1;align=center;verticalAlign=middle;resizable=0;points=[];" vertex="1" connectable="0" parent="-KGcdh5OTj6o3cFqSFtT-7">
          <mxGeometry x="-0.5639" y="2" relative="1" as="geometry">
            <mxPoint as="offset" />
          </mxGeometry>
        </mxCell>
        <mxCell id="-KGcdh5OTj6o3cFqSFtT-9" style="edgeStyle=orthogonalEdgeStyle;orthogonalLoop=1;jettySize=auto;html=1;entryX=0.5;entryY=0;entryDx=0;entryDy=0;" edge="1" parent="1" source="-KGcdh5OTj6o3cFqSFtT-11" target="-KGcdh5OTj6o3cFqSFtT-19">
          <mxGeometry relative="1" as="geometry" />
        </mxCell>
        <mxCell id="-KGcdh5OTj6o3cFqSFtT-10" value="No" style="edgeLabel;html=1;align=center;verticalAlign=middle;resizable=0;points=[];" vertex="1" connectable="0" parent="-KGcdh5OTj6o3cFqSFtT-9">
          <mxGeometry x="-0.0398" relative="1" as="geometry">
            <mxPoint as="offset" />
          </mxGeometry>
        </mxCell>
        <mxCell id="-KGcdh5OTj6o3cFqSFtT-11" value="&lt;div&gt;&lt;br&gt;&lt;/div&gt;&lt;div&gt;if&lt;/div&gt;n==a" style="rhombus;whiteSpace=wrap;html=1;fillColor=#CCCCCC;" vertex="1" parent="1">
          <mxGeometry x="168.75" y="-835" width="122.5" height="110" as="geometry" />
        </mxCell>
        <mxCell id="-KGcdh5OTj6o3cFqSFtT-12" value="print Netflix" style="shape=parallelogram;perimeter=parallelogramPerimeter;whiteSpace=wrap;html=1;fixedSize=1;" vertex="1" parent="1">
          <mxGeometry x="420" y="-760" width="120" height="30" as="geometry" />
        </mxCell>
        <mxCell id="-KGcdh5OTj6o3cFqSFtT-13" style="edgeStyle=orthogonalEdgeStyle;orthogonalLoop=1;jettySize=auto;html=1;" edge="1" parent="1" source="-KGcdh5OTj6o3cFqSFtT-14" target="-KGcdh5OTj6o3cFqSFtT-6">
          <mxGeometry relative="1" as="geometry" />
        </mxCell>
        <mxCell id="-KGcdh5OTj6o3cFqSFtT-14" value="Print Amazon-Prime" style="shape=parallelogram;perimeter=parallelogramPerimeter;whiteSpace=wrap;html=1;fixedSize=1;" vertex="1" parent="1">
          <mxGeometry x="140" y="-520" width="165" height="30" as="geometry" />
        </mxCell>
        <mxCell id="-KGcdh5OTj6o3cFqSFtT-15" style="edgeStyle=orthogonalEdgeStyle;orthogonalLoop=1;jettySize=auto;html=1;exitX=0.5;exitY=1;exitDx=0;exitDy=0;entryX=0.5;entryY=0;entryDx=0;entryDy=0;entryPerimeter=0;" edge="1" parent="1" source="-KGcdh5OTj6o3cFqSFtT-12" target="-KGcdh5OTj6o3cFqSFtT-6">
          <mxGeometry relative="1" as="geometry" />
        </mxCell>
        <mxCell id="-KGcdh5OTj6o3cFqSFtT-19" value="n==b" style="rhombus;whiteSpace=wrap;html=1;fillColor=#CCCCCC;" vertex="1" parent="1">
          <mxGeometry x="175" y="-684" width="110" height="100" as="geometry" />
        </mxCell>
        <mxCell id="-KGcdh5OTj6o3cFqSFtT-20" style="edgeStyle=orthogonalEdgeStyle;orthogonalLoop=1;jettySize=auto;html=1;exitX=0.5;exitY=1;exitDx=0;exitDy=0;entryX=0.545;entryY=0.001;entryDx=0;entryDy=0;entryPerimeter=0;" edge="1" parent="1" source="-KGcdh5OTj6o3cFqSFtT-19" target="-KGcdh5OTj6o3cFqSFtT-14">
          <mxGeometry relative="1" as="geometry" />
        </mxCell>
        <mxCell id="-KGcdh5OTj6o3cFqSFtT-21" value="No" style="edgeLabel;html=1;align=center;verticalAlign=middle;resizable=0;points=[];" vertex="1" connectable="0" parent="-KGcdh5OTj6o3cFqSFtT-20">
          <mxGeometry x="-0.2049" relative="1" as="geometry">
            <mxPoint as="offset" />
          </mxGeometry>
        </mxCell>
        <mxCell id="-KGcdh5OTj6o3cFqSFtT-25" value="Yes" style="edgeLabel;html=1;align=center;verticalAlign=middle;resizable=0;points=[];" vertex="1" connectable="0" parent="-KGcdh5OTj6o3cFqSFtT-20">
          <mxGeometry x="-0.2635" y="3" relative="1" as="geometry">
            <mxPoint as="offset" />
          </mxGeometry>
        </mxCell>
        <mxCell id="-KGcdh5OTj6o3cFqSFtT-24" style="edgeStyle=orthogonalEdgeStyle;orthogonalLoop=1;jettySize=auto;html=1;exitX=0.5;exitY=1;exitDx=0;exitDy=0;entryX=0.5;entryY=0;entryDx=0;entryDy=0;" edge="1" parent="1" source="-KGcdh5OTj6o3cFqSFtT-22" target="-KGcdh5OTj6o3cFqSFtT-11">
          <mxGeometry relative="1" as="geometry" />
        </mxCell>
        <mxCell id="-KGcdh5OTj6o3cFqSFtT-22" value="Declare ,a=Horror and Thriller&lt;div&gt;b=Comedy and Humour&lt;/div&gt;" style="rounded=0;whiteSpace=wrap;html=1;" vertex="1" parent="1">
          <mxGeometry x="100" y="-930" width="280" height="60" as="geometry" />
        </mxCell>
        <mxCell id="-KGcdh5OTj6o3cFqSFtT-27" style="edgeStyle=orthogonalEdgeStyle;orthogonalLoop=1;jettySize=auto;html=1;exitX=1;exitY=0.5;exitDx=0;exitDy=0;entryX=0;entryY=0.5;entryDx=0;entryDy=0;entryPerimeter=0;" edge="1" parent="1" source="-KGcdh5OTj6o3cFqSFtT-19" target="-KGcdh5OTj6o3cFqSFtT-6">
          <mxGeometry relative="1" as="geometry" />
        </mxCell>
        <mxCell id="-KGcdh5OTj6o3cFqSFtT-28" value="No" style="edgeLabel;html=1;align=center;verticalAlign=middle;resizable=0;points=[];" vertex="1" connectable="0" parent="-KGcdh5OTj6o3cFqSFtT-27">
          <mxGeometry x="-0.0765" y="-1" relative="1" as="geometry">
            <mxPoint as="offset" />
          </mxGeometry>
        </mxCell>
      </root>
    </mxGraphModel>
  </diagram>
  <diagram id="5c6GyMrqeelGg8TJ_tH2" name="Page-5">
    <mxGraphModel grid="1" page="1" gridSize="10" guides="1" tooltips="1" connect="1" arrows="1" fold="1" pageScale="1" pageWidth="827" pageHeight="1169" math="0" shadow="0">
      <root>
        <mxCell id="0" />
        <mxCell id="1" parent="0" />
        <mxCell id="rgnHLEBRfR4iJX38plDW-1" value="No" style="edgeStyle=orthogonalEdgeStyle;rounded=0;html=1;jettySize=auto;orthogonalLoop=1;fontSize=11;endArrow=block;endFill=0;endSize=8;strokeWidth=1;shadow=0;labelBackgroundColor=none;entryX=0;entryY=0.5;entryDx=0;entryDy=0;fillColor=#A6A6A6;" edge="1" parent="1" source="rgnHLEBRfR4iJX38plDW-2">
          <mxGeometry x="-0.4083" y="10" relative="1" as="geometry">
            <mxPoint as="offset" />
            <mxPoint x="360" y="280" as="targetPoint" />
          </mxGeometry>
        </mxCell>
        <mxCell id="rgnHLEBRfR4iJX38plDW-2" value="&lt;div&gt;&lt;font size=&quot;3&quot;&gt;while i&amp;lt;n&lt;/font&gt;&lt;/div&gt;" style="rhombus;whiteSpace=wrap;html=1;shadow=0;fontFamily=Helvetica;fontSize=12;align=center;strokeWidth=1;spacing=6;spacingTop=-4;fillColor=#A6A6A6;rounded=0;" vertex="1" parent="1">
          <mxGeometry x="170" y="240" width="100" height="80" as="geometry" />
        </mxCell>
        <mxCell id="rgnHLEBRfR4iJX38plDW-3" value="Yes" style="edgeStyle=orthogonalEdgeStyle;rounded=0;html=1;jettySize=auto;orthogonalLoop=1;fontSize=11;endArrow=block;endFill=0;endSize=8;strokeWidth=1;shadow=0;labelBackgroundColor=none;entryX=0.067;entryY=0.504;entryDx=0;entryDy=0;entryPerimeter=0;fillColor=#A6A6A6;" edge="1" parent="1" source="rgnHLEBRfR4iJX38plDW-4" target="rgnHLEBRfR4iJX38plDW-7">
          <mxGeometry y="10" relative="1" as="geometry">
            <mxPoint as="offset" />
            <mxPoint x="320" y="540" as="targetPoint" />
          </mxGeometry>
        </mxCell>
        <mxCell id="rgnHLEBRfR4iJX38plDW-4" value="&lt;div&gt;&lt;font style=&quot;font-size: 18px;&quot;&gt;while j&amp;gt;0&amp;nbsp;&lt;/font&gt;&lt;/div&gt;" style="rhombus;whiteSpace=wrap;html=1;shadow=0;fontFamily=Helvetica;fontSize=12;align=center;strokeWidth=1;spacing=6;spacingTop=-4;fillColor=#A6A6A6;rounded=0;" vertex="1" parent="1">
          <mxGeometry x="170" y="655" width="100" height="80" as="geometry" />
        </mxCell>
        <mxCell id="rgnHLEBRfR4iJX38plDW-5" value="Input number n" style="shape=parallelogram;perimeter=parallelogramPerimeter;whiteSpace=wrap;html=1;fixedSize=1;fillColor=#A6A6A6;rounded=0;" vertex="1" parent="1">
          <mxGeometry x="160" y="90" width="120" height="30" as="geometry" />
        </mxCell>
        <mxCell id="rgnHLEBRfR4iJX38plDW-6" value="" style="rounded=0;html=1;jettySize=auto;orthogonalLoop=1;fontSize=11;endArrow=block;endFill=0;endSize=8;strokeWidth=1;shadow=0;labelBackgroundColor=none;edgeStyle=orthogonalEdgeStyle;fillColor=#A6A6A6;" edge="1" parent="1">
          <mxGeometry relative="1" as="geometry">
            <mxPoint x="219.44" y="40" as="sourcePoint" />
            <mxPoint x="219.44" y="90" as="targetPoint" />
          </mxGeometry>
        </mxCell>
        <mxCell id="rgnHLEBRfR4iJX38plDW-7" value="&lt;font style=&quot;font-size: 14px;&quot;&gt;&amp;nbsp; print(&quot;*&quot; ,end=&#39;&#39;)&lt;/font&gt;&lt;div&gt;&lt;font size=&quot;3&quot;&gt;in row&lt;/font&gt;&lt;/div&gt;" style="shape=parallelogram;perimeter=parallelogramPerimeter;whiteSpace=wrap;html=1;fixedSize=1;fillColor=#A6A6A6;rounded=0;" vertex="1" parent="1">
          <mxGeometry x="350" y="675" width="150" height="40" as="geometry" />
        </mxCell>
        <mxCell id="rgnHLEBRfR4iJX38plDW-8" value="Print()&amp;nbsp;" style="shape=parallelogram;perimeter=parallelogramPerimeter;whiteSpace=wrap;html=1;fixedSize=1;fillColor=#A6A6A6;rounded=0;" vertex="1" parent="1">
          <mxGeometry x="160" y="794" width="120" height="30" as="geometry" />
        </mxCell>
        <mxCell id="rgnHLEBRfR4iJX38plDW-9" value="&lt;font style=&quot;font-size: 18px;&quot;&gt;Assign i=0&lt;/font&gt;" style="rounded=0;whiteSpace=wrap;html=1;" vertex="1" parent="1">
          <mxGeometry x="160" y="160" width="120" height="40" as="geometry" />
        </mxCell>
        <mxCell id="rgnHLEBRfR4iJX38plDW-10" value="" style="endArrow=classic;html=1;rounded=0;entryX=0.5;entryY=0;entryDx=0;entryDy=0;exitX=0.5;exitY=1;exitDx=0;exitDy=0;" edge="1" parent="1" source="rgnHLEBRfR4iJX38plDW-5" target="rgnHLEBRfR4iJX38plDW-9">
          <mxGeometry width="50" height="50" relative="1" as="geometry">
            <mxPoint x="310" y="170" as="sourcePoint" />
            <mxPoint x="360" y="120" as="targetPoint" />
          </mxGeometry>
        </mxCell>
        <mxCell id="rgnHLEBRfR4iJX38plDW-11" value="" style="endArrow=classic;html=1;rounded=0;entryX=0.5;entryY=0;entryDx=0;entryDy=0;exitX=0.5;exitY=1;exitDx=0;exitDy=0;" edge="1" parent="1" source="rgnHLEBRfR4iJX38plDW-9" target="rgnHLEBRfR4iJX38plDW-2">
          <mxGeometry width="50" height="50" relative="1" as="geometry">
            <mxPoint x="310" y="170" as="sourcePoint" />
            <mxPoint x="360" y="120" as="targetPoint" />
          </mxGeometry>
        </mxCell>
        <mxCell id="rgnHLEBRfR4iJX38plDW-12" value="&lt;font style=&quot;font-size: 18px;&quot;&gt;Assign p=n-i-1&lt;/font&gt;" style="rounded=0;whiteSpace=wrap;html=1;" vertex="1" parent="1">
          <mxGeometry x="170" y="360" width="120" height="40" as="geometry" />
        </mxCell>
        <mxCell id="rgnHLEBRfR4iJX38plDW-13" value="" style="endArrow=classic;html=1;rounded=0;entryX=0.416;entryY=0.055;entryDx=0;entryDy=0;exitX=0.5;exitY=1;exitDx=0;exitDy=0;entryPerimeter=0;" edge="1" parent="1" source="rgnHLEBRfR4iJX38plDW-2" target="rgnHLEBRfR4iJX38plDW-12">
          <mxGeometry width="50" height="50" relative="1" as="geometry">
            <mxPoint x="310" y="450" as="sourcePoint" />
            <mxPoint x="360" y="400" as="targetPoint" />
          </mxGeometry>
        </mxCell>
        <mxCell id="rgnHLEBRfR4iJX38plDW-14" value="Yes" style="edgeLabel;html=1;align=center;verticalAlign=middle;resizable=0;points=[];rounded=0;" vertex="1" connectable="0" parent="rgnHLEBRfR4iJX38plDW-13">
          <mxGeometry x="-0.2726" relative="1" as="geometry">
            <mxPoint as="offset" />
          </mxGeometry>
        </mxCell>
        <mxCell id="rgnHLEBRfR4iJX38plDW-16" value="" style="endArrow=classic;html=1;rounded=0;entryX=0.5;entryY=0;entryDx=0;entryDy=0;" edge="1" parent="1" target="rgnHLEBRfR4iJX38plDW-4" source="rgnHLEBRfR4iJX38plDW-28">
          <mxGeometry width="50" height="50" relative="1" as="geometry">
            <mxPoint x="220" y="400" as="sourcePoint" />
            <mxPoint x="80" y="420" as="targetPoint" />
          </mxGeometry>
        </mxCell>
        <mxCell id="5pKJQ3Tb0WaxKtDawigP-2" value="No" style="edgeLabel;html=1;align=center;verticalAlign=middle;resizable=0;points=[];" vertex="1" connectable="0" parent="rgnHLEBRfR4iJX38plDW-16">
          <mxGeometry x="-0.7306" relative="1" as="geometry">
            <mxPoint as="offset" />
          </mxGeometry>
        </mxCell>
        <mxCell id="rgnHLEBRfR4iJX38plDW-17" value="" style="endArrow=classic;html=1;rounded=0;exitX=0.5;exitY=1;exitDx=0;exitDy=0;" edge="1" parent="1" source="rgnHLEBRfR4iJX38plDW-4">
          <mxGeometry width="50" height="50" relative="1" as="geometry">
            <mxPoint x="260" y="640" as="sourcePoint" />
            <mxPoint x="220" y="790" as="targetPoint" />
          </mxGeometry>
        </mxCell>
        <mxCell id="rgnHLEBRfR4iJX38plDW-18" value="No" style="edgeLabel;html=1;align=center;verticalAlign=middle;resizable=0;points=[];rounded=0;" vertex="1" connectable="0" parent="rgnHLEBRfR4iJX38plDW-17">
          <mxGeometry x="-0.1476" relative="1" as="geometry">
            <mxPoint as="offset" />
          </mxGeometry>
        </mxCell>
        <mxCell id="5pKJQ3Tb0WaxKtDawigP-7" style="edgeStyle=orthogonalEdgeStyle;orthogonalLoop=1;jettySize=auto;html=1;entryX=1;entryY=0;entryDx=0;entryDy=0;" edge="1" parent="1" source="rgnHLEBRfR4iJX38plDW-20" target="rgnHLEBRfR4iJX38plDW-4">
          <mxGeometry relative="1" as="geometry">
            <Array as="points">
              <mxPoint x="405" y="880" />
              <mxPoint x="570" y="880" />
              <mxPoint x="570" y="640" />
              <mxPoint x="245" y="640" />
            </Array>
          </mxGeometry>
        </mxCell>
        <mxCell id="rgnHLEBRfR4iJX38plDW-20" value="&lt;font style=&quot;font-size: 18px;&quot;&gt;j-=1&lt;/font&gt;" style="rounded=0;whiteSpace=wrap;html=1;" vertex="1" parent="1">
          <mxGeometry x="350" y="804" width="110" height="36" as="geometry" />
        </mxCell>
        <mxCell id="5pKJQ3Tb0WaxKtDawigP-6" style="edgeStyle=orthogonalEdgeStyle;orthogonalLoop=1;jettySize=auto;html=1;entryX=0;entryY=0.5;entryDx=0;entryDy=0;" edge="1" parent="1" source="rgnHLEBRfR4iJX38plDW-21" target="rgnHLEBRfR4iJX38plDW-2">
          <mxGeometry relative="1" as="geometry">
            <Array as="points">
              <mxPoint x="90" y="898" />
              <mxPoint x="90" y="280" />
            </Array>
          </mxGeometry>
        </mxCell>
        <mxCell id="rgnHLEBRfR4iJX38plDW-21" value="&lt;font style=&quot;font-size: 18px;&quot;&gt;i+=1&lt;/font&gt;" style="rounded=0;whiteSpace=wrap;html=1;" vertex="1" parent="1">
          <mxGeometry x="165" y="880" width="110" height="36" as="geometry" />
        </mxCell>
        <mxCell id="rgnHLEBRfR4iJX38plDW-22" value="" style="endArrow=classic;html=1;rounded=0;entryX=0.5;entryY=0;entryDx=0;entryDy=0;exitX=0.5;exitY=1;exitDx=0;exitDy=0;" edge="1" parent="1" source="rgnHLEBRfR4iJX38plDW-8" target="rgnHLEBRfR4iJX38plDW-21">
          <mxGeometry width="50" height="50" relative="1" as="geometry">
            <mxPoint x="480" y="810" as="sourcePoint" />
            <mxPoint x="530" y="760" as="targetPoint" />
          </mxGeometry>
        </mxCell>
        <mxCell id="rgnHLEBRfR4iJX38plDW-23" value="" style="endArrow=classic;html=1;rounded=0;" edge="1" parent="1">
          <mxGeometry width="50" height="50" relative="1" as="geometry">
            <mxPoint x="400" y="720" as="sourcePoint" />
            <mxPoint x="400" y="800" as="targetPoint" />
          </mxGeometry>
        </mxCell>
        <mxCell id="rgnHLEBRfR4iJX38plDW-24" value="&lt;font style=&quot;font-size: 18px;&quot;&gt;End&lt;/font&gt;" style="strokeWidth=2;html=1;shape=mxgraph.flowchart.terminator;whiteSpace=wrap;fillColor=#A6A6A6;rounded=0;" vertex="1" parent="1">
          <mxGeometry x="364" y="260" width="100" height="40" as="geometry" />
        </mxCell>
        <mxCell id="rgnHLEBRfR4iJX38plDW-25" value="&lt;font style=&quot;font-size: 18px;&quot;&gt;Start&lt;/font&gt;" style="strokeWidth=2;html=1;shape=mxgraph.flowchart.terminator;whiteSpace=wrap;fillColor=#A6A6A6;rounded=0;" vertex="1" parent="1">
          <mxGeometry x="170" width="100" height="40" as="geometry" />
        </mxCell>
        <mxCell id="rgnHLEBRfR4iJX38plDW-26" value="&lt;pre style=&quot;font-family: var(--jp-code-font-family); line-height: var(--jp-code-line-height); border: none; margin-top: 0px; margin-bottom: 0px; padding: 0px; overflow: auto; word-break: break-all; overflow-wrap: break-word; text-wrap: wrap; text-align: left;&quot;&gt;&lt;span style=&quot;background-color: rgb(255, 255, 255);&quot;&gt;&lt;font style=&quot;font-size: 24px;&quot;&gt;         * &lt;br&gt;        * * &lt;br&gt;       * * * &lt;br&gt;      * * * * &lt;br&gt;     * * * * * &lt;br&gt;    * * * * * *&lt;/font&gt;&lt;/span&gt;&lt;/pre&gt;" style="whiteSpace=wrap;html=1;aspect=fixed;rounded=0;" vertex="1" parent="1">
          <mxGeometry x="550" y="15" width="185" height="185" as="geometry" />
        </mxCell>
        <mxCell id="rgnHLEBRfR4iJX38plDW-29" value="" style="endArrow=classic;html=1;rounded=0;entryX=0.5;entryY=0;entryDx=0;entryDy=0;" edge="1" parent="1" target="rgnHLEBRfR4iJX38plDW-28">
          <mxGeometry width="50" height="50" relative="1" as="geometry">
            <mxPoint x="220" y="400" as="sourcePoint" />
            <mxPoint x="220" y="655" as="targetPoint" />
          </mxGeometry>
        </mxCell>
        <mxCell id="rgnHLEBRfR4iJX38plDW-28" value="&lt;div&gt;&lt;font size=&quot;3&quot;&gt;p&amp;gt;0&lt;/font&gt;&lt;/div&gt;" style="rhombus;whiteSpace=wrap;html=1;shadow=0;fontFamily=Helvetica;fontSize=12;align=center;strokeWidth=1;spacing=6;spacingTop=-4;fillColor=#A6A6A6;rounded=0;" vertex="1" parent="1">
          <mxGeometry x="170" y="440" width="100" height="80" as="geometry" />
        </mxCell>
        <mxCell id="rgnHLEBRfR4iJX38plDW-30" value="&lt;span style=&quot;font-size: 18px;&quot;&gt;j=i+1&lt;/span&gt;" style="rounded=0;whiteSpace=wrap;html=1;" vertex="1" parent="1">
          <mxGeometry x="165" y="564.5" width="120" height="40" as="geometry" />
        </mxCell>
        <mxCell id="5pKJQ3Tb0WaxKtDawigP-4" style="edgeStyle=orthogonalEdgeStyle;orthogonalLoop=1;jettySize=auto;html=1;exitX=0.5;exitY=1;exitDx=0;exitDy=0;entryX=0.5;entryY=0;entryDx=0;entryDy=0;" edge="1" parent="1" source="rgnHLEBRfR4iJX38plDW-32" target="5pKJQ3Tb0WaxKtDawigP-3">
          <mxGeometry relative="1" as="geometry" />
        </mxCell>
        <mxCell id="rgnHLEBRfR4iJX38plDW-32" value="&lt;font style=&quot;font-size: 14px;&quot;&gt;&amp;nbsp; print(end=&#39; &#39;)&lt;/font&gt;&lt;div&gt;&lt;font size=&quot;3&quot;&gt;in row&lt;/font&gt;&lt;/div&gt;" style="shape=parallelogram;perimeter=parallelogramPerimeter;whiteSpace=wrap;html=1;fixedSize=1;fillColor=#A6A6A6;rounded=0;" vertex="1" parent="1">
          <mxGeometry x="350" y="460" width="150" height="40" as="geometry" />
        </mxCell>
        <mxCell id="rgnHLEBRfR4iJX38plDW-33" style="edgeStyle=orthogonalEdgeStyle;orthogonalLoop=1;jettySize=auto;html=1;exitX=1;exitY=0.5;exitDx=0;exitDy=0;entryX=0.029;entryY=0.601;entryDx=0;entryDy=0;entryPerimeter=0;" edge="1" parent="1" source="rgnHLEBRfR4iJX38plDW-28" target="rgnHLEBRfR4iJX38plDW-32">
          <mxGeometry relative="1" as="geometry" />
        </mxCell>
        <mxCell id="5pKJQ3Tb0WaxKtDawigP-1" value="Yes" style="edgeLabel;html=1;align=center;verticalAlign=middle;resizable=0;points=[];" vertex="1" connectable="0" parent="rgnHLEBRfR4iJX38plDW-33">
          <mxGeometry x="0.0886" y="3" relative="1" as="geometry">
            <mxPoint as="offset" />
          </mxGeometry>
        </mxCell>
        <mxCell id="5pKJQ3Tb0WaxKtDawigP-5" style="edgeStyle=orthogonalEdgeStyle;orthogonalLoop=1;jettySize=auto;html=1;exitX=1;exitY=0.5;exitDx=0;exitDy=0;entryX=1;entryY=0;entryDx=0;entryDy=0;" edge="1" parent="1" source="5pKJQ3Tb0WaxKtDawigP-3" target="rgnHLEBRfR4iJX38plDW-28">
          <mxGeometry relative="1" as="geometry">
            <Array as="points">
              <mxPoint x="560" y="587" />
              <mxPoint x="560" y="410" />
              <mxPoint x="245" y="410" />
            </Array>
          </mxGeometry>
        </mxCell>
        <mxCell id="5pKJQ3Tb0WaxKtDawigP-3" value="p-+1" style="rounded=0;whiteSpace=wrap;html=1;" vertex="1" parent="1">
          <mxGeometry x="370" y="570" width="120" height="34.5" as="geometry" />
        </mxCell>
      </root>
    </mxGraphModel>
  </diagram>
  <diagram id="gZPE72AVk51IVJGujC9G" name="Page-7">
    <mxGraphModel grid="1" page="1" gridSize="10" guides="1" tooltips="1" connect="1" arrows="1" fold="1" pageScale="1" pageWidth="827" pageHeight="1169" math="0" shadow="0">
      <root>
        <mxCell id="0" />
        <mxCell id="1" parent="0" />
        <mxCell id="mTFSn-ZApiZ7fRLME_Gp-1" value="&lt;span style=&quot;background-color: rgb(255, 255, 255);&quot;&gt;&lt;font style=&quot;font-size: 36px;&quot;&gt;&lt;br&gt;&lt;/font&gt;&lt;/span&gt;&lt;pre style=&quot;font-family: var(--jp-code-font-family); line-height: var(--jp-code-line-height); color: var(--jp-content-font-color1); border: none; margin: 0px; padding: 0px; overflow: auto; word-break: break-all; overflow-wrap: break-word; white-space: pre-wrap; font-style: normal; font-variant-ligatures: normal; font-variant-caps: normal; font-weight: 400; letter-spacing: normal; orphans: 2; text-align: left; text-indent: 0px; text-transform: none; widows: 2; word-spacing: 0px; -webkit-text-stroke-width: 0px; text-decoration-thickness: initial; text-decoration-style: initial; text-decoration-color: initial;&quot;&gt;&lt;span style=&quot;background-color: rgb(255, 255, 255);&quot;&gt;&lt;font size=&quot;3&quot;&gt;   A &lt;br&gt;  B B &lt;br&gt; C C C &lt;br&gt;D D D D &lt;/font&gt;&lt;/span&gt;&lt;/pre&gt;&lt;span style=&quot;background-color: rgb(255, 255, 255);&quot;&gt;&lt;br&gt;&lt;/span&gt;" style="whiteSpace=wrap;html=1;aspect=fixed;" vertex="1" parent="1">
          <mxGeometry x="440" y="20" width="170" height="170" as="geometry" />
        </mxCell>
        <mxCell id="ftahAPYmBixy7CFNe1_K-1" value="No" style="edgeStyle=orthogonalEdgeStyle;rounded=0;html=1;jettySize=auto;orthogonalLoop=1;fontSize=11;endArrow=block;endFill=0;endSize=8;strokeWidth=1;shadow=0;labelBackgroundColor=none;entryX=0;entryY=0.5;entryDx=0;entryDy=0;fillColor=#A6A6A6;" edge="1" parent="1" source="ftahAPYmBixy7CFNe1_K-2">
          <mxGeometry x="-0.4083" y="10" relative="1" as="geometry">
            <mxPoint as="offset" />
            <mxPoint x="360" y="280" as="targetPoint" />
          </mxGeometry>
        </mxCell>
        <mxCell id="ftahAPYmBixy7CFNe1_K-2" value="&lt;div&gt;&lt;font size=&quot;3&quot;&gt;while i&amp;lt;n&lt;/font&gt;&lt;/div&gt;" style="rhombus;whiteSpace=wrap;html=1;shadow=0;fontFamily=Helvetica;fontSize=12;align=center;strokeWidth=1;spacing=6;spacingTop=-4;fillColor=#A6A6A6;rounded=0;" vertex="1" parent="1">
          <mxGeometry x="170" y="240" width="100" height="80" as="geometry" />
        </mxCell>
        <mxCell id="ftahAPYmBixy7CFNe1_K-3" value="Yes" style="edgeStyle=orthogonalEdgeStyle;rounded=0;html=1;jettySize=auto;orthogonalLoop=1;fontSize=11;endArrow=block;endFill=0;endSize=8;strokeWidth=1;shadow=0;labelBackgroundColor=none;entryX=0.067;entryY=0.504;entryDx=0;entryDy=0;entryPerimeter=0;fillColor=#A6A6A6;" edge="1" parent="1" source="ftahAPYmBixy7CFNe1_K-4" target="ftahAPYmBixy7CFNe1_K-7">
          <mxGeometry y="10" relative="1" as="geometry">
            <mxPoint as="offset" />
            <mxPoint x="320" y="540" as="targetPoint" />
          </mxGeometry>
        </mxCell>
        <mxCell id="ftahAPYmBixy7CFNe1_K-4" value="&lt;div&gt;&lt;font style=&quot;font-size: 18px;&quot;&gt;while j&amp;gt;0&amp;nbsp;&lt;/font&gt;&lt;/div&gt;" style="rhombus;whiteSpace=wrap;html=1;shadow=0;fontFamily=Helvetica;fontSize=12;align=center;strokeWidth=1;spacing=6;spacingTop=-4;fillColor=#A6A6A6;rounded=0;" vertex="1" parent="1">
          <mxGeometry x="170" y="655" width="100" height="80" as="geometry" />
        </mxCell>
        <mxCell id="ftahAPYmBixy7CFNe1_K-5" value="Input number n" style="shape=parallelogram;perimeter=parallelogramPerimeter;whiteSpace=wrap;html=1;fixedSize=1;fillColor=#A6A6A6;rounded=0;" vertex="1" parent="1">
          <mxGeometry x="160" y="90" width="120" height="30" as="geometry" />
        </mxCell>
        <mxCell id="ftahAPYmBixy7CFNe1_K-6" value="" style="rounded=0;html=1;jettySize=auto;orthogonalLoop=1;fontSize=11;endArrow=block;endFill=0;endSize=8;strokeWidth=1;shadow=0;labelBackgroundColor=none;edgeStyle=orthogonalEdgeStyle;fillColor=#A6A6A6;" edge="1" parent="1">
          <mxGeometry relative="1" as="geometry">
            <mxPoint x="219.44" y="40" as="sourcePoint" />
            <mxPoint x="219.44" y="90" as="targetPoint" />
          </mxGeometry>
        </mxCell>
        <mxCell id="ftahAPYmBixy7CFNe1_K-7" value="&lt;font style=&quot;font-size: 14px;&quot;&gt;&amp;nbsp; print(&quot;*&quot; ,end=&#39;&#39;)&lt;/font&gt;&lt;div&gt;&lt;font size=&quot;3&quot;&gt;in row&lt;/font&gt;&lt;/div&gt;" style="shape=parallelogram;perimeter=parallelogramPerimeter;whiteSpace=wrap;html=1;fixedSize=1;fillColor=#A6A6A6;rounded=0;" vertex="1" parent="1">
          <mxGeometry x="350" y="675" width="150" height="40" as="geometry" />
        </mxCell>
        <mxCell id="ftahAPYmBixy7CFNe1_K-8" value="Print()&amp;nbsp;" style="shape=parallelogram;perimeter=parallelogramPerimeter;whiteSpace=wrap;html=1;fixedSize=1;fillColor=#A6A6A6;rounded=0;" vertex="1" parent="1">
          <mxGeometry x="160" y="794" width="120" height="30" as="geometry" />
        </mxCell>
        <mxCell id="ftahAPYmBixy7CFNe1_K-9" value="&lt;font style=&quot;font-size: 18px;&quot;&gt;Assign i=0&lt;/font&gt;&lt;div&gt;&lt;font style=&quot;font-size: 18px;&quot;&gt;a=65&lt;/font&gt;&lt;/div&gt;" style="rounded=0;whiteSpace=wrap;html=1;" vertex="1" parent="1">
          <mxGeometry x="160" y="160" width="120" height="40" as="geometry" />
        </mxCell>
        <mxCell id="ftahAPYmBixy7CFNe1_K-10" value="" style="endArrow=classic;html=1;rounded=0;entryX=0.5;entryY=0;entryDx=0;entryDy=0;exitX=0.5;exitY=1;exitDx=0;exitDy=0;" edge="1" parent="1" source="ftahAPYmBixy7CFNe1_K-5" target="ftahAPYmBixy7CFNe1_K-9">
          <mxGeometry width="50" height="50" relative="1" as="geometry">
            <mxPoint x="310" y="170" as="sourcePoint" />
            <mxPoint x="360" y="120" as="targetPoint" />
          </mxGeometry>
        </mxCell>
        <mxCell id="ftahAPYmBixy7CFNe1_K-11" value="" style="endArrow=classic;html=1;rounded=0;entryX=0.5;entryY=0;entryDx=0;entryDy=0;exitX=0.5;exitY=1;exitDx=0;exitDy=0;" edge="1" parent="1" source="ftahAPYmBixy7CFNe1_K-9" target="ftahAPYmBixy7CFNe1_K-2">
          <mxGeometry width="50" height="50" relative="1" as="geometry">
            <mxPoint x="310" y="170" as="sourcePoint" />
            <mxPoint x="360" y="120" as="targetPoint" />
          </mxGeometry>
        </mxCell>
        <mxCell id="ftahAPYmBixy7CFNe1_K-12" value="&lt;font style=&quot;font-size: 18px;&quot;&gt;Assign p=n-i-1&lt;/font&gt;" style="rounded=0;whiteSpace=wrap;html=1;" vertex="1" parent="1">
          <mxGeometry x="170" y="360" width="120" height="40" as="geometry" />
        </mxCell>
        <mxCell id="ftahAPYmBixy7CFNe1_K-13" value="" style="endArrow=classic;html=1;rounded=0;entryX=0.416;entryY=0.055;entryDx=0;entryDy=0;exitX=0.5;exitY=1;exitDx=0;exitDy=0;entryPerimeter=0;" edge="1" parent="1" source="ftahAPYmBixy7CFNe1_K-2" target="ftahAPYmBixy7CFNe1_K-12">
          <mxGeometry width="50" height="50" relative="1" as="geometry">
            <mxPoint x="310" y="450" as="sourcePoint" />
            <mxPoint x="360" y="400" as="targetPoint" />
          </mxGeometry>
        </mxCell>
        <mxCell id="ftahAPYmBixy7CFNe1_K-14" value="Yes" style="edgeLabel;html=1;align=center;verticalAlign=middle;resizable=0;points=[];rounded=0;" vertex="1" connectable="0" parent="ftahAPYmBixy7CFNe1_K-13">
          <mxGeometry x="-0.2726" relative="1" as="geometry">
            <mxPoint as="offset" />
          </mxGeometry>
        </mxCell>
        <mxCell id="ftahAPYmBixy7CFNe1_K-15" value="" style="endArrow=classic;html=1;rounded=0;entryX=0.5;entryY=0;entryDx=0;entryDy=0;" edge="1" parent="1" source="ftahAPYmBixy7CFNe1_K-28" target="ftahAPYmBixy7CFNe1_K-4">
          <mxGeometry width="50" height="50" relative="1" as="geometry">
            <mxPoint x="220" y="400" as="sourcePoint" />
            <mxPoint x="80" y="420" as="targetPoint" />
          </mxGeometry>
        </mxCell>
        <mxCell id="ftahAPYmBixy7CFNe1_K-16" value="No" style="edgeLabel;html=1;align=center;verticalAlign=middle;resizable=0;points=[];" vertex="1" connectable="0" parent="ftahAPYmBixy7CFNe1_K-15">
          <mxGeometry x="-0.7306" relative="1" as="geometry">
            <mxPoint as="offset" />
          </mxGeometry>
        </mxCell>
        <mxCell id="ftahAPYmBixy7CFNe1_K-17" value="" style="endArrow=classic;html=1;rounded=0;exitX=0.5;exitY=1;exitDx=0;exitDy=0;" edge="1" parent="1" source="ftahAPYmBixy7CFNe1_K-4">
          <mxGeometry width="50" height="50" relative="1" as="geometry">
            <mxPoint x="260" y="640" as="sourcePoint" />
            <mxPoint x="220" y="790" as="targetPoint" />
          </mxGeometry>
        </mxCell>
        <mxCell id="ftahAPYmBixy7CFNe1_K-18" value="No" style="edgeLabel;html=1;align=center;verticalAlign=middle;resizable=0;points=[];rounded=0;" vertex="1" connectable="0" parent="ftahAPYmBixy7CFNe1_K-17">
          <mxGeometry x="-0.1476" relative="1" as="geometry">
            <mxPoint as="offset" />
          </mxGeometry>
        </mxCell>
        <mxCell id="ftahAPYmBixy7CFNe1_K-19" style="edgeStyle=orthogonalEdgeStyle;orthogonalLoop=1;jettySize=auto;html=1;entryX=1;entryY=0;entryDx=0;entryDy=0;" edge="1" parent="1" source="ftahAPYmBixy7CFNe1_K-20" target="ftahAPYmBixy7CFNe1_K-4">
          <mxGeometry relative="1" as="geometry">
            <Array as="points">
              <mxPoint x="405" y="880" />
              <mxPoint x="570" y="880" />
              <mxPoint x="570" y="640" />
              <mxPoint x="245" y="640" />
            </Array>
          </mxGeometry>
        </mxCell>
        <mxCell id="ftahAPYmBixy7CFNe1_K-20" value="&lt;font style=&quot;font-size: 18px;&quot;&gt;j-=1&lt;/font&gt;&lt;div&gt;&lt;font style=&quot;font-size: 18px;&quot;&gt;a+=1&lt;/font&gt;&lt;/div&gt;" style="rounded=0;whiteSpace=wrap;html=1;" vertex="1" parent="1">
          <mxGeometry x="350" y="804" width="110" height="36" as="geometry" />
        </mxCell>
        <mxCell id="ftahAPYmBixy7CFNe1_K-36" style="edgeStyle=orthogonalEdgeStyle;orthogonalLoop=1;jettySize=auto;html=1;entryX=0;entryY=0.5;entryDx=0;entryDy=0;" edge="1" parent="1" source="ftahAPYmBixy7CFNe1_K-21" target="ftahAPYmBixy7CFNe1_K-2">
          <mxGeometry relative="1" as="geometry">
            <Array as="points">
              <mxPoint x="100" y="898" />
              <mxPoint x="100" y="280" />
            </Array>
          </mxGeometry>
        </mxCell>
        <mxCell id="ftahAPYmBixy7CFNe1_K-21" value="&lt;font style=&quot;font-size: 18px;&quot;&gt;i+=1&lt;/font&gt;" style="rounded=0;whiteSpace=wrap;html=1;" vertex="1" parent="1">
          <mxGeometry x="165" y="880" width="110" height="36" as="geometry" />
        </mxCell>
        <mxCell id="ftahAPYmBixy7CFNe1_K-22" value="" style="endArrow=classic;html=1;rounded=0;entryX=0.5;entryY=0;entryDx=0;entryDy=0;exitX=0.5;exitY=1;exitDx=0;exitDy=0;" edge="1" parent="1" source="ftahAPYmBixy7CFNe1_K-8" target="ftahAPYmBixy7CFNe1_K-21">
          <mxGeometry width="50" height="50" relative="1" as="geometry">
            <mxPoint x="480" y="810" as="sourcePoint" />
            <mxPoint x="530" y="760" as="targetPoint" />
          </mxGeometry>
        </mxCell>
        <mxCell id="ftahAPYmBixy7CFNe1_K-23" value="" style="endArrow=classic;html=1;rounded=0;" edge="1" parent="1">
          <mxGeometry width="50" height="50" relative="1" as="geometry">
            <mxPoint x="400" y="720" as="sourcePoint" />
            <mxPoint x="400" y="800" as="targetPoint" />
          </mxGeometry>
        </mxCell>
        <mxCell id="ftahAPYmBixy7CFNe1_K-24" value="&lt;font style=&quot;font-size: 18px;&quot;&gt;End&lt;/font&gt;" style="strokeWidth=2;html=1;shape=mxgraph.flowchart.terminator;whiteSpace=wrap;fillColor=#A6A6A6;rounded=0;" vertex="1" parent="1">
          <mxGeometry x="364" y="260" width="100" height="40" as="geometry" />
        </mxCell>
        <mxCell id="ftahAPYmBixy7CFNe1_K-25" value="&lt;font style=&quot;font-size: 18px;&quot;&gt;Start&lt;/font&gt;" style="strokeWidth=2;html=1;shape=mxgraph.flowchart.terminator;whiteSpace=wrap;fillColor=#A6A6A6;rounded=0;" vertex="1" parent="1">
          <mxGeometry x="170" width="100" height="40" as="geometry" />
        </mxCell>
        <mxCell id="ftahAPYmBixy7CFNe1_K-27" value="" style="endArrow=classic;html=1;rounded=0;entryX=0.5;entryY=0;entryDx=0;entryDy=0;" edge="1" parent="1" target="ftahAPYmBixy7CFNe1_K-28">
          <mxGeometry width="50" height="50" relative="1" as="geometry">
            <mxPoint x="220" y="400" as="sourcePoint" />
            <mxPoint x="220" y="655" as="targetPoint" />
          </mxGeometry>
        </mxCell>
        <mxCell id="ftahAPYmBixy7CFNe1_K-28" value="&lt;div&gt;&lt;font size=&quot;3&quot;&gt;p&amp;gt;0&lt;/font&gt;&lt;/div&gt;" style="rhombus;whiteSpace=wrap;html=1;shadow=0;fontFamily=Helvetica;fontSize=12;align=center;strokeWidth=1;spacing=6;spacingTop=-4;fillColor=#A6A6A6;rounded=0;" vertex="1" parent="1">
          <mxGeometry x="170" y="440" width="100" height="80" as="geometry" />
        </mxCell>
        <mxCell id="ftahAPYmBixy7CFNe1_K-29" value="&lt;span style=&quot;font-size: 18px;&quot;&gt;j=i+1&lt;/span&gt;" style="rounded=0;whiteSpace=wrap;html=1;" vertex="1" parent="1">
          <mxGeometry x="165" y="564.5" width="120" height="40" as="geometry" />
        </mxCell>
        <mxCell id="ftahAPYmBixy7CFNe1_K-30" style="edgeStyle=orthogonalEdgeStyle;orthogonalLoop=1;jettySize=auto;html=1;exitX=0.5;exitY=1;exitDx=0;exitDy=0;entryX=0.5;entryY=0;entryDx=0;entryDy=0;" edge="1" parent="1" source="ftahAPYmBixy7CFNe1_K-31" target="ftahAPYmBixy7CFNe1_K-35">
          <mxGeometry relative="1" as="geometry" />
        </mxCell>
        <mxCell id="ftahAPYmBixy7CFNe1_K-31" value="&lt;font style=&quot;font-size: 14px;&quot;&gt;&amp;nbsp; print(end=&#39; &#39;)&lt;/font&gt;&lt;div&gt;&lt;font size=&quot;3&quot;&gt;in row&lt;/font&gt;&lt;/div&gt;" style="shape=parallelogram;perimeter=parallelogramPerimeter;whiteSpace=wrap;html=1;fixedSize=1;fillColor=#A6A6A6;rounded=0;" vertex="1" parent="1">
          <mxGeometry x="350" y="460" width="150" height="40" as="geometry" />
        </mxCell>
        <mxCell id="ftahAPYmBixy7CFNe1_K-32" style="edgeStyle=orthogonalEdgeStyle;orthogonalLoop=1;jettySize=auto;html=1;exitX=1;exitY=0.5;exitDx=0;exitDy=0;entryX=0.029;entryY=0.601;entryDx=0;entryDy=0;entryPerimeter=0;" edge="1" parent="1" source="ftahAPYmBixy7CFNe1_K-28" target="ftahAPYmBixy7CFNe1_K-31">
          <mxGeometry relative="1" as="geometry" />
        </mxCell>
        <mxCell id="ftahAPYmBixy7CFNe1_K-33" value="Yes" style="edgeLabel;html=1;align=center;verticalAlign=middle;resizable=0;points=[];" vertex="1" connectable="0" parent="ftahAPYmBixy7CFNe1_K-32">
          <mxGeometry x="0.0886" y="3" relative="1" as="geometry">
            <mxPoint as="offset" />
          </mxGeometry>
        </mxCell>
        <mxCell id="ftahAPYmBixy7CFNe1_K-34" style="edgeStyle=orthogonalEdgeStyle;orthogonalLoop=1;jettySize=auto;html=1;exitX=1;exitY=0.5;exitDx=0;exitDy=0;entryX=1;entryY=0;entryDx=0;entryDy=0;" edge="1" parent="1" source="ftahAPYmBixy7CFNe1_K-35" target="ftahAPYmBixy7CFNe1_K-28">
          <mxGeometry relative="1" as="geometry">
            <Array as="points">
              <mxPoint x="560" y="587" />
              <mxPoint x="560" y="410" />
              <mxPoint x="245" y="410" />
            </Array>
          </mxGeometry>
        </mxCell>
        <mxCell id="ftahAPYmBixy7CFNe1_K-35" value="p-+1" style="rounded=0;whiteSpace=wrap;html=1;" vertex="1" parent="1">
          <mxGeometry x="370" y="570" width="120" height="34.5" as="geometry" />
        </mxCell>
      </root>
    </mxGraphModel>
  </diagram>
  <diagram id="2eTOKZ8PghhfHYg8pGR3" name="Page-6">
    <mxGraphModel grid="1" page="1" gridSize="10" guides="1" tooltips="1" connect="1" arrows="1" fold="1" pageScale="1" pageWidth="827" pageHeight="1169" math="0" shadow="0">
      <root>
        <mxCell id="0" />
        <mxCell id="1" parent="0" />
        <mxCell id="SUMmc0fbfkRjXDsRCaE0-1" value="&lt;pre style=&quot;font-family: var(--jp-code-font-family); line-height: var(--jp-code-line-height); color: var(--jp-content-font-color1); border: none; margin-top: 0px; margin-bottom: 0px; padding: 0px; overflow: auto; word-break: break-all; overflow-wrap: break-word; text-wrap: wrap; text-align: left;&quot;&gt;&lt;span style=&quot;background-color: rgb(255, 255, 255);&quot;&gt;&lt;font style=&quot;font-size: 24px;&quot;&gt;           A &lt;br&gt;        B B &lt;br&gt;    C C C &lt;br&gt; D D D D&lt;/font&gt;&lt;/span&gt;&lt;/pre&gt;" style="whiteSpace=wrap;html=1;aspect=fixed;" vertex="1" parent="1">
          <mxGeometry x="440" y="20" width="170" height="170" as="geometry" />
        </mxCell>
        <mxCell id="SUMmc0fbfkRjXDsRCaE0-2" value="No" style="edgeStyle=orthogonalEdgeStyle;rounded=0;html=1;jettySize=auto;orthogonalLoop=1;fontSize=11;endArrow=block;endFill=0;endSize=8;strokeWidth=1;shadow=0;labelBackgroundColor=none;entryX=0;entryY=0.5;entryDx=0;entryDy=0;fillColor=#A6A6A6;" edge="1" parent="1" source="SUMmc0fbfkRjXDsRCaE0-3">
          <mxGeometry x="-0.4083" y="10" relative="1" as="geometry">
            <mxPoint as="offset" />
            <mxPoint x="360" y="280" as="targetPoint" />
          </mxGeometry>
        </mxCell>
        <mxCell id="SUMmc0fbfkRjXDsRCaE0-3" value="&lt;div&gt;&lt;font size=&quot;3&quot;&gt;while i&amp;lt;=n&lt;/font&gt;&lt;/div&gt;" style="rhombus;whiteSpace=wrap;html=1;shadow=0;fontFamily=Helvetica;fontSize=12;align=center;strokeWidth=1;spacing=6;spacingTop=-4;fillColor=#A6A6A6;rounded=0;" vertex="1" parent="1">
          <mxGeometry x="170" y="240" width="100" height="80" as="geometry" />
        </mxCell>
        <mxCell id="SUMmc0fbfkRjXDsRCaE0-4" value="Yes" style="edgeStyle=orthogonalEdgeStyle;rounded=0;html=1;jettySize=auto;orthogonalLoop=1;fontSize=11;endArrow=block;endFill=0;endSize=8;strokeWidth=1;shadow=0;labelBackgroundColor=none;entryX=0.067;entryY=0.504;entryDx=0;entryDy=0;entryPerimeter=0;fillColor=#A6A6A6;" edge="1" parent="1" source="SUMmc0fbfkRjXDsRCaE0-5" target="SUMmc0fbfkRjXDsRCaE0-8">
          <mxGeometry y="10" relative="1" as="geometry">
            <mxPoint as="offset" />
            <mxPoint x="320" y="540" as="targetPoint" />
          </mxGeometry>
        </mxCell>
        <mxCell id="SUMmc0fbfkRjXDsRCaE0-5" value="&lt;div&gt;&lt;font style=&quot;font-size: 18px;&quot;&gt;while k&amp;lt;=i&amp;nbsp;&lt;/font&gt;&lt;/div&gt;" style="rhombus;whiteSpace=wrap;html=1;shadow=0;fontFamily=Helvetica;fontSize=12;align=center;strokeWidth=1;spacing=6;spacingTop=-4;fillColor=#A6A6A6;rounded=0;" vertex="1" parent="1">
          <mxGeometry x="170" y="655" width="100" height="80" as="geometry" />
        </mxCell>
        <mxCell id="SUMmc0fbfkRjXDsRCaE0-6" value="Input number n" style="shape=parallelogram;perimeter=parallelogramPerimeter;whiteSpace=wrap;html=1;fixedSize=1;fillColor=#A6A6A6;rounded=0;" vertex="1" parent="1">
          <mxGeometry x="160" y="90" width="120" height="30" as="geometry" />
        </mxCell>
        <mxCell id="SUMmc0fbfkRjXDsRCaE0-7" value="" style="rounded=0;html=1;jettySize=auto;orthogonalLoop=1;fontSize=11;endArrow=block;endFill=0;endSize=8;strokeWidth=1;shadow=0;labelBackgroundColor=none;edgeStyle=orthogonalEdgeStyle;fillColor=#A6A6A6;" edge="1" parent="1">
          <mxGeometry relative="1" as="geometry">
            <mxPoint x="219.44" y="40" as="sourcePoint" />
            <mxPoint x="219.44" y="90" as="targetPoint" />
          </mxGeometry>
        </mxCell>
        <mxCell id="SUMmc0fbfkRjXDsRCaE0-8" value="&lt;font style=&quot;font-size: 14px;&quot;&gt;&amp;nbsp; printchr(a) ,end=&#39;&#39;)&lt;/font&gt;&lt;div&gt;&lt;font size=&quot;3&quot;&gt;in row&lt;/font&gt;&lt;/div&gt;" style="shape=parallelogram;perimeter=parallelogramPerimeter;whiteSpace=wrap;html=1;fixedSize=1;fillColor=#A6A6A6;rounded=0;" vertex="1" parent="1">
          <mxGeometry x="350" y="675" width="150" height="40" as="geometry" />
        </mxCell>
        <mxCell id="SUMmc0fbfkRjXDsRCaE0-9" value="Print()&amp;nbsp;" style="shape=parallelogram;perimeter=parallelogramPerimeter;whiteSpace=wrap;html=1;fixedSize=1;fillColor=#A6A6A6;rounded=0;" vertex="1" parent="1">
          <mxGeometry x="160" y="794" width="120" height="30" as="geometry" />
        </mxCell>
        <mxCell id="SUMmc0fbfkRjXDsRCaE0-10" value="&lt;font style=&quot;font-size: 18px;&quot;&gt;Assign i=1&lt;/font&gt;&lt;div&gt;&lt;font style=&quot;font-size: 18px;&quot;&gt;a=65&lt;/font&gt;&lt;/div&gt;" style="rounded=0;whiteSpace=wrap;html=1;" vertex="1" parent="1">
          <mxGeometry x="160" y="160" width="120" height="40" as="geometry" />
        </mxCell>
        <mxCell id="SUMmc0fbfkRjXDsRCaE0-11" value="" style="endArrow=classic;html=1;rounded=0;entryX=0.5;entryY=0;entryDx=0;entryDy=0;exitX=0.5;exitY=1;exitDx=0;exitDy=0;" edge="1" parent="1" source="SUMmc0fbfkRjXDsRCaE0-6" target="SUMmc0fbfkRjXDsRCaE0-10">
          <mxGeometry width="50" height="50" relative="1" as="geometry">
            <mxPoint x="310" y="170" as="sourcePoint" />
            <mxPoint x="360" y="120" as="targetPoint" />
          </mxGeometry>
        </mxCell>
        <mxCell id="SUMmc0fbfkRjXDsRCaE0-12" value="" style="endArrow=classic;html=1;rounded=0;entryX=0.5;entryY=0;entryDx=0;entryDy=0;exitX=0.5;exitY=1;exitDx=0;exitDy=0;" edge="1" parent="1" source="SUMmc0fbfkRjXDsRCaE0-10" target="SUMmc0fbfkRjXDsRCaE0-3">
          <mxGeometry width="50" height="50" relative="1" as="geometry">
            <mxPoint x="310" y="170" as="sourcePoint" />
            <mxPoint x="360" y="120" as="targetPoint" />
          </mxGeometry>
        </mxCell>
        <mxCell id="SUMmc0fbfkRjXDsRCaE0-13" value="&lt;font style=&quot;font-size: 18px;&quot;&gt;Assign j=1&lt;/font&gt;" style="rounded=0;whiteSpace=wrap;html=1;" vertex="1" parent="1">
          <mxGeometry x="170" y="360" width="120" height="40" as="geometry" />
        </mxCell>
        <mxCell id="SUMmc0fbfkRjXDsRCaE0-14" value="" style="endArrow=classic;html=1;rounded=0;entryX=0.416;entryY=0.055;entryDx=0;entryDy=0;exitX=0.5;exitY=1;exitDx=0;exitDy=0;entryPerimeter=0;" edge="1" parent="1" source="SUMmc0fbfkRjXDsRCaE0-3" target="SUMmc0fbfkRjXDsRCaE0-13">
          <mxGeometry width="50" height="50" relative="1" as="geometry">
            <mxPoint x="310" y="450" as="sourcePoint" />
            <mxPoint x="360" y="400" as="targetPoint" />
          </mxGeometry>
        </mxCell>
        <mxCell id="SUMmc0fbfkRjXDsRCaE0-15" value="Yes" style="edgeLabel;html=1;align=center;verticalAlign=middle;resizable=0;points=[];rounded=0;" vertex="1" connectable="0" parent="SUMmc0fbfkRjXDsRCaE0-14">
          <mxGeometry x="-0.2726" relative="1" as="geometry">
            <mxPoint as="offset" />
          </mxGeometry>
        </mxCell>
        <mxCell id="SUMmc0fbfkRjXDsRCaE0-16" value="" style="endArrow=classic;html=1;rounded=0;entryX=0.5;entryY=0;entryDx=0;entryDy=0;" edge="1" parent="1" source="SUMmc0fbfkRjXDsRCaE0-29" target="SUMmc0fbfkRjXDsRCaE0-5">
          <mxGeometry width="50" height="50" relative="1" as="geometry">
            <mxPoint x="220" y="400" as="sourcePoint" />
            <mxPoint x="80" y="420" as="targetPoint" />
          </mxGeometry>
        </mxCell>
        <mxCell id="SUMmc0fbfkRjXDsRCaE0-17" value="No" style="edgeLabel;html=1;align=center;verticalAlign=middle;resizable=0;points=[];" vertex="1" connectable="0" parent="SUMmc0fbfkRjXDsRCaE0-16">
          <mxGeometry x="-0.7306" relative="1" as="geometry">
            <mxPoint as="offset" />
          </mxGeometry>
        </mxCell>
        <mxCell id="SUMmc0fbfkRjXDsRCaE0-18" value="" style="endArrow=classic;html=1;rounded=0;exitX=0.5;exitY=1;exitDx=0;exitDy=0;" edge="1" parent="1" source="SUMmc0fbfkRjXDsRCaE0-5">
          <mxGeometry width="50" height="50" relative="1" as="geometry">
            <mxPoint x="260" y="640" as="sourcePoint" />
            <mxPoint x="220" y="790" as="targetPoint" />
          </mxGeometry>
        </mxCell>
        <mxCell id="SUMmc0fbfkRjXDsRCaE0-19" value="No" style="edgeLabel;html=1;align=center;verticalAlign=middle;resizable=0;points=[];rounded=0;" vertex="1" connectable="0" parent="SUMmc0fbfkRjXDsRCaE0-18">
          <mxGeometry x="-0.1476" relative="1" as="geometry">
            <mxPoint as="offset" />
          </mxGeometry>
        </mxCell>
        <mxCell id="SUMmc0fbfkRjXDsRCaE0-20" style="edgeStyle=orthogonalEdgeStyle;orthogonalLoop=1;jettySize=auto;html=1;entryX=1;entryY=0;entryDx=0;entryDy=0;" edge="1" parent="1" source="SUMmc0fbfkRjXDsRCaE0-21" target="SUMmc0fbfkRjXDsRCaE0-5">
          <mxGeometry relative="1" as="geometry">
            <Array as="points">
              <mxPoint x="405" y="880" />
              <mxPoint x="570" y="880" />
              <mxPoint x="570" y="640" />
              <mxPoint x="245" y="640" />
            </Array>
          </mxGeometry>
        </mxCell>
        <mxCell id="SUMmc0fbfkRjXDsRCaE0-21" value="&lt;font style=&quot;font-size: 18px;&quot;&gt;k+=1&lt;/font&gt;&lt;div&gt;&lt;font style=&quot;font-size: 18px;&quot;&gt;a+=1&lt;/font&gt;&lt;/div&gt;" style="rounded=0;whiteSpace=wrap;html=1;" vertex="1" parent="1">
          <mxGeometry x="350" y="804" width="110" height="36" as="geometry" />
        </mxCell>
        <mxCell id="SUMmc0fbfkRjXDsRCaE0-22" style="edgeStyle=orthogonalEdgeStyle;orthogonalLoop=1;jettySize=auto;html=1;entryX=0;entryY=0.5;entryDx=0;entryDy=0;" edge="1" parent="1" source="SUMmc0fbfkRjXDsRCaE0-23" target="SUMmc0fbfkRjXDsRCaE0-3">
          <mxGeometry relative="1" as="geometry">
            <Array as="points">
              <mxPoint x="100" y="898" />
              <mxPoint x="100" y="280" />
            </Array>
          </mxGeometry>
        </mxCell>
        <mxCell id="SUMmc0fbfkRjXDsRCaE0-23" value="&lt;font style=&quot;font-size: 18px;&quot;&gt;i+=1&lt;/font&gt;" style="rounded=0;whiteSpace=wrap;html=1;" vertex="1" parent="1">
          <mxGeometry x="165" y="880" width="110" height="36" as="geometry" />
        </mxCell>
        <mxCell id="SUMmc0fbfkRjXDsRCaE0-24" value="" style="endArrow=classic;html=1;rounded=0;entryX=0.5;entryY=0;entryDx=0;entryDy=0;exitX=0.5;exitY=1;exitDx=0;exitDy=0;" edge="1" parent="1" source="SUMmc0fbfkRjXDsRCaE0-9" target="SUMmc0fbfkRjXDsRCaE0-23">
          <mxGeometry width="50" height="50" relative="1" as="geometry">
            <mxPoint x="480" y="810" as="sourcePoint" />
            <mxPoint x="530" y="760" as="targetPoint" />
          </mxGeometry>
        </mxCell>
        <mxCell id="SUMmc0fbfkRjXDsRCaE0-25" value="" style="endArrow=classic;html=1;rounded=0;" edge="1" parent="1">
          <mxGeometry width="50" height="50" relative="1" as="geometry">
            <mxPoint x="400" y="720" as="sourcePoint" />
            <mxPoint x="400" y="800" as="targetPoint" />
          </mxGeometry>
        </mxCell>
        <mxCell id="SUMmc0fbfkRjXDsRCaE0-26" value="&lt;font style=&quot;font-size: 18px;&quot;&gt;End&lt;/font&gt;" style="strokeWidth=2;html=1;shape=mxgraph.flowchart.terminator;whiteSpace=wrap;fillColor=#A6A6A6;rounded=0;" vertex="1" parent="1">
          <mxGeometry x="364" y="260" width="100" height="40" as="geometry" />
        </mxCell>
        <mxCell id="SUMmc0fbfkRjXDsRCaE0-27" value="&lt;font style=&quot;font-size: 18px;&quot;&gt;Start&lt;/font&gt;" style="strokeWidth=2;html=1;shape=mxgraph.flowchart.terminator;whiteSpace=wrap;fillColor=#A6A6A6;rounded=0;" vertex="1" parent="1">
          <mxGeometry x="170" width="100" height="40" as="geometry" />
        </mxCell>
        <mxCell id="SUMmc0fbfkRjXDsRCaE0-28" value="" style="endArrow=classic;html=1;rounded=0;entryX=0.5;entryY=0;entryDx=0;entryDy=0;" edge="1" parent="1" target="SUMmc0fbfkRjXDsRCaE0-29">
          <mxGeometry width="50" height="50" relative="1" as="geometry">
            <mxPoint x="220" y="400" as="sourcePoint" />
            <mxPoint x="220" y="655" as="targetPoint" />
          </mxGeometry>
        </mxCell>
        <mxCell id="SUMmc0fbfkRjXDsRCaE0-29" value="&lt;div&gt;&lt;font size=&quot;3&quot;&gt;j&amp;gt;i&lt;/font&gt;&lt;/div&gt;" style="rhombus;whiteSpace=wrap;html=1;shadow=0;fontFamily=Helvetica;fontSize=12;align=center;strokeWidth=1;spacing=6;spacingTop=-4;fillColor=#A6A6A6;rounded=0;" vertex="1" parent="1">
          <mxGeometry x="170" y="440" width="100" height="80" as="geometry" />
        </mxCell>
        <mxCell id="SUMmc0fbfkRjXDsRCaE0-30" value="&lt;span style=&quot;font-size: 18px;&quot;&gt;k=1&lt;/span&gt;" style="rounded=0;whiteSpace=wrap;html=1;" vertex="1" parent="1">
          <mxGeometry x="165" y="564.5" width="120" height="40" as="geometry" />
        </mxCell>
        <mxCell id="SUMmc0fbfkRjXDsRCaE0-31" style="edgeStyle=orthogonalEdgeStyle;orthogonalLoop=1;jettySize=auto;html=1;exitX=0.5;exitY=1;exitDx=0;exitDy=0;entryX=0.5;entryY=0;entryDx=0;entryDy=0;" edge="1" parent="1" source="SUMmc0fbfkRjXDsRCaE0-32" target="SUMmc0fbfkRjXDsRCaE0-36">
          <mxGeometry relative="1" as="geometry" />
        </mxCell>
        <mxCell id="SUMmc0fbfkRjXDsRCaE0-32" value="&lt;font style=&quot;font-size: 14px;&quot;&gt;&amp;nbsp; print(&quot; &quot;,end=&#39; &#39;)&lt;/font&gt;&lt;div&gt;&lt;font size=&quot;3&quot;&gt;in row&lt;/font&gt;&lt;/div&gt;" style="shape=parallelogram;perimeter=parallelogramPerimeter;whiteSpace=wrap;html=1;fixedSize=1;fillColor=#A6A6A6;rounded=0;" vertex="1" parent="1">
          <mxGeometry x="350" y="460" width="150" height="40" as="geometry" />
        </mxCell>
        <mxCell id="SUMmc0fbfkRjXDsRCaE0-33" style="edgeStyle=orthogonalEdgeStyle;orthogonalLoop=1;jettySize=auto;html=1;exitX=1;exitY=0.5;exitDx=0;exitDy=0;entryX=0.029;entryY=0.601;entryDx=0;entryDy=0;entryPerimeter=0;" edge="1" parent="1" source="SUMmc0fbfkRjXDsRCaE0-29" target="SUMmc0fbfkRjXDsRCaE0-32">
          <mxGeometry relative="1" as="geometry" />
        </mxCell>
        <mxCell id="SUMmc0fbfkRjXDsRCaE0-34" value="Yes" style="edgeLabel;html=1;align=center;verticalAlign=middle;resizable=0;points=[];" vertex="1" connectable="0" parent="SUMmc0fbfkRjXDsRCaE0-33">
          <mxGeometry x="0.0886" y="3" relative="1" as="geometry">
            <mxPoint as="offset" />
          </mxGeometry>
        </mxCell>
        <mxCell id="SUMmc0fbfkRjXDsRCaE0-35" style="edgeStyle=orthogonalEdgeStyle;orthogonalLoop=1;jettySize=auto;html=1;exitX=1;exitY=0.5;exitDx=0;exitDy=0;entryX=1;entryY=0;entryDx=0;entryDy=0;" edge="1" parent="1" source="SUMmc0fbfkRjXDsRCaE0-36" target="SUMmc0fbfkRjXDsRCaE0-29">
          <mxGeometry relative="1" as="geometry">
            <Array as="points">
              <mxPoint x="560" y="587" />
              <mxPoint x="560" y="410" />
              <mxPoint x="245" y="410" />
            </Array>
          </mxGeometry>
        </mxCell>
        <mxCell id="SUMmc0fbfkRjXDsRCaE0-36" value="j-=1" style="rounded=0;whiteSpace=wrap;html=1;" vertex="1" parent="1">
          <mxGeometry x="370" y="570" width="120" height="34.5" as="geometry" />
        </mxCell>
      </root>
    </mxGraphModel>
  </diagram>
  <diagram id="oge8-oq3T1-Nisz6Q5bu" name="Page-8">
    <mxGraphModel dx="1313" dy="1864" grid="1" gridSize="10" guides="1" tooltips="1" connect="1" arrows="1" fold="1" page="1" pageScale="1" pageWidth="827" pageHeight="1169" math="0" shadow="0">
      <root>
        <mxCell id="0" />
        <mxCell id="1" parent="0" />
        <mxCell id="fJFOeW6E8pA7QztKi1U_-1" value="&lt;pre style=&quot;font-family: var(--jp-code-font-family); line-height: var(--jp-code-line-height); color: var(--jp-content-font-color1); border: none; margin-top: 0px; margin-bottom: 0px; padding: 0px; overflow: auto; word-break: break-all; overflow-wrap: break-word; text-wrap: wrap; text-align: left;&quot;&gt;&lt;pre style=&quot;font-family: var(--jp-code-font-family); line-height: var(--jp-code-line-height); color: var(--jp-content-font-color1); border: none; margin-top: 0px; margin-bottom: 0px; padding: 0px; overflow: auto; word-break: break-all; overflow-wrap: break-word; text-wrap: wrap;&quot;&gt;&lt;span style=&quot;background-color: rgb(255, 255, 255);&quot;&gt;&lt;font style=&quot;font-size: 24px;&quot;&gt;         1 &lt;br&gt;      1 2 &lt;br&gt;   1 2 3 &lt;br&gt;1 2 3 4&lt;/font&gt;&lt;/span&gt;&lt;/pre&gt;&lt;/pre&gt;" style="whiteSpace=wrap;html=1;aspect=fixed;" vertex="1" parent="1">
          <mxGeometry x="440" y="20" width="170" height="170" as="geometry" />
        </mxCell>
        <mxCell id="fJFOeW6E8pA7QztKi1U_-2" value="No" style="edgeStyle=orthogonalEdgeStyle;rounded=0;html=1;jettySize=auto;orthogonalLoop=1;fontSize=11;endArrow=block;endFill=0;endSize=8;strokeWidth=1;shadow=0;labelBackgroundColor=none;entryX=0;entryY=0.5;entryDx=0;entryDy=0;fillColor=#A6A6A6;" edge="1" parent="1" source="fJFOeW6E8pA7QztKi1U_-3">
          <mxGeometry x="-0.4083" y="10" relative="1" as="geometry">
            <mxPoint as="offset" />
            <mxPoint x="360" y="280" as="targetPoint" />
          </mxGeometry>
        </mxCell>
        <mxCell id="fJFOeW6E8pA7QztKi1U_-3" value="&lt;div&gt;&lt;font size=&quot;3&quot;&gt;while i&amp;lt;=n&lt;/font&gt;&lt;/div&gt;" style="rhombus;whiteSpace=wrap;html=1;shadow=0;fontFamily=Helvetica;fontSize=12;align=center;strokeWidth=1;spacing=6;spacingTop=-4;fillColor=#A6A6A6;rounded=0;" vertex="1" parent="1">
          <mxGeometry x="170" y="240" width="100" height="80" as="geometry" />
        </mxCell>
        <mxCell id="fJFOeW6E8pA7QztKi1U_-4" value="Yes" style="edgeStyle=orthogonalEdgeStyle;rounded=0;html=1;jettySize=auto;orthogonalLoop=1;fontSize=11;endArrow=block;endFill=0;endSize=8;strokeWidth=1;shadow=0;labelBackgroundColor=none;entryX=0.067;entryY=0.504;entryDx=0;entryDy=0;entryPerimeter=0;fillColor=#A6A6A6;" edge="1" parent="1" source="fJFOeW6E8pA7QztKi1U_-5" target="fJFOeW6E8pA7QztKi1U_-8">
          <mxGeometry y="10" relative="1" as="geometry">
            <mxPoint as="offset" />
            <mxPoint x="320" y="540" as="targetPoint" />
          </mxGeometry>
        </mxCell>
        <mxCell id="fJFOeW6E8pA7QztKi1U_-5" value="&lt;div&gt;&lt;font style=&quot;font-size: 18px;&quot;&gt;while k&amp;lt;=i&amp;nbsp;&lt;/font&gt;&lt;/div&gt;" style="rhombus;whiteSpace=wrap;html=1;shadow=0;fontFamily=Helvetica;fontSize=12;align=center;strokeWidth=1;spacing=6;spacingTop=-4;fillColor=#A6A6A6;rounded=0;" vertex="1" parent="1">
          <mxGeometry x="170" y="655" width="100" height="80" as="geometry" />
        </mxCell>
        <mxCell id="fJFOeW6E8pA7QztKi1U_-6" value="Input number n" style="shape=parallelogram;perimeter=parallelogramPerimeter;whiteSpace=wrap;html=1;fixedSize=1;fillColor=#A6A6A6;rounded=0;" vertex="1" parent="1">
          <mxGeometry x="160" y="90" width="120" height="30" as="geometry" />
        </mxCell>
        <mxCell id="fJFOeW6E8pA7QztKi1U_-7" value="" style="rounded=0;html=1;jettySize=auto;orthogonalLoop=1;fontSize=11;endArrow=block;endFill=0;endSize=8;strokeWidth=1;shadow=0;labelBackgroundColor=none;edgeStyle=orthogonalEdgeStyle;fillColor=#A6A6A6;" edge="1" parent="1">
          <mxGeometry relative="1" as="geometry">
            <mxPoint x="219.44" y="40" as="sourcePoint" />
            <mxPoint x="219.44" y="90" as="targetPoint" />
          </mxGeometry>
        </mxCell>
        <mxCell id="fJFOeW6E8pA7QztKi1U_-8" value="&lt;font style=&quot;font-size: 14px;&quot;&gt;&amp;nbsp; print (k ,end=&#39;&#39;)&lt;/font&gt;&lt;div&gt;&lt;font size=&quot;3&quot;&gt;in row&lt;/font&gt;&lt;/div&gt;" style="shape=parallelogram;perimeter=parallelogramPerimeter;whiteSpace=wrap;html=1;fixedSize=1;fillColor=#A6A6A6;rounded=0;" vertex="1" parent="1">
          <mxGeometry x="350" y="675" width="150" height="40" as="geometry" />
        </mxCell>
        <mxCell id="fJFOeW6E8pA7QztKi1U_-9" value="Print()&amp;nbsp;" style="shape=parallelogram;perimeter=parallelogramPerimeter;whiteSpace=wrap;html=1;fixedSize=1;fillColor=#A6A6A6;rounded=0;" vertex="1" parent="1">
          <mxGeometry x="160" y="794" width="120" height="30" as="geometry" />
        </mxCell>
        <mxCell id="fJFOeW6E8pA7QztKi1U_-10" value="&lt;font style=&quot;font-size: 18px;&quot;&gt;Assign i=1&lt;/font&gt;" style="rounded=0;whiteSpace=wrap;html=1;" vertex="1" parent="1">
          <mxGeometry x="160" y="160" width="120" height="40" as="geometry" />
        </mxCell>
        <mxCell id="fJFOeW6E8pA7QztKi1U_-11" value="" style="endArrow=classic;html=1;rounded=0;entryX=0.5;entryY=0;entryDx=0;entryDy=0;exitX=0.5;exitY=1;exitDx=0;exitDy=0;" edge="1" parent="1" source="fJFOeW6E8pA7QztKi1U_-6" target="fJFOeW6E8pA7QztKi1U_-10">
          <mxGeometry width="50" height="50" relative="1" as="geometry">
            <mxPoint x="310" y="170" as="sourcePoint" />
            <mxPoint x="360" y="120" as="targetPoint" />
          </mxGeometry>
        </mxCell>
        <mxCell id="fJFOeW6E8pA7QztKi1U_-12" value="" style="endArrow=classic;html=1;rounded=0;entryX=0.5;entryY=0;entryDx=0;entryDy=0;exitX=0.5;exitY=1;exitDx=0;exitDy=0;" edge="1" parent="1" source="fJFOeW6E8pA7QztKi1U_-10" target="fJFOeW6E8pA7QztKi1U_-3">
          <mxGeometry width="50" height="50" relative="1" as="geometry">
            <mxPoint x="310" y="170" as="sourcePoint" />
            <mxPoint x="360" y="120" as="targetPoint" />
          </mxGeometry>
        </mxCell>
        <mxCell id="fJFOeW6E8pA7QztKi1U_-13" value="&lt;font style=&quot;font-size: 18px;&quot;&gt;Assign j=1&lt;/font&gt;" style="rounded=0;whiteSpace=wrap;html=1;" vertex="1" parent="1">
          <mxGeometry x="170" y="360" width="120" height="40" as="geometry" />
        </mxCell>
        <mxCell id="fJFOeW6E8pA7QztKi1U_-14" value="" style="endArrow=classic;html=1;rounded=0;entryX=0.416;entryY=0.055;entryDx=0;entryDy=0;exitX=0.5;exitY=1;exitDx=0;exitDy=0;entryPerimeter=0;" edge="1" parent="1" source="fJFOeW6E8pA7QztKi1U_-3" target="fJFOeW6E8pA7QztKi1U_-13">
          <mxGeometry width="50" height="50" relative="1" as="geometry">
            <mxPoint x="310" y="450" as="sourcePoint" />
            <mxPoint x="360" y="400" as="targetPoint" />
          </mxGeometry>
        </mxCell>
        <mxCell id="fJFOeW6E8pA7QztKi1U_-15" value="Yes" style="edgeLabel;html=1;align=center;verticalAlign=middle;resizable=0;points=[];rounded=0;" vertex="1" connectable="0" parent="fJFOeW6E8pA7QztKi1U_-14">
          <mxGeometry x="-0.2726" relative="1" as="geometry">
            <mxPoint as="offset" />
          </mxGeometry>
        </mxCell>
        <mxCell id="fJFOeW6E8pA7QztKi1U_-16" value="" style="endArrow=classic;html=1;rounded=0;entryX=0.5;entryY=0;entryDx=0;entryDy=0;" edge="1" parent="1" source="fJFOeW6E8pA7QztKi1U_-29" target="fJFOeW6E8pA7QztKi1U_-5">
          <mxGeometry width="50" height="50" relative="1" as="geometry">
            <mxPoint x="220" y="400" as="sourcePoint" />
            <mxPoint x="80" y="420" as="targetPoint" />
          </mxGeometry>
        </mxCell>
        <mxCell id="fJFOeW6E8pA7QztKi1U_-17" value="No" style="edgeLabel;html=1;align=center;verticalAlign=middle;resizable=0;points=[];" vertex="1" connectable="0" parent="fJFOeW6E8pA7QztKi1U_-16">
          <mxGeometry x="-0.7306" relative="1" as="geometry">
            <mxPoint as="offset" />
          </mxGeometry>
        </mxCell>
        <mxCell id="fJFOeW6E8pA7QztKi1U_-18" value="" style="endArrow=classic;html=1;rounded=0;exitX=0.5;exitY=1;exitDx=0;exitDy=0;" edge="1" parent="1" source="fJFOeW6E8pA7QztKi1U_-5">
          <mxGeometry width="50" height="50" relative="1" as="geometry">
            <mxPoint x="260" y="640" as="sourcePoint" />
            <mxPoint x="220" y="790" as="targetPoint" />
          </mxGeometry>
        </mxCell>
        <mxCell id="fJFOeW6E8pA7QztKi1U_-19" value="No" style="edgeLabel;html=1;align=center;verticalAlign=middle;resizable=0;points=[];rounded=0;" vertex="1" connectable="0" parent="fJFOeW6E8pA7QztKi1U_-18">
          <mxGeometry x="-0.1476" relative="1" as="geometry">
            <mxPoint as="offset" />
          </mxGeometry>
        </mxCell>
        <mxCell id="fJFOeW6E8pA7QztKi1U_-20" style="edgeStyle=orthogonalEdgeStyle;orthogonalLoop=1;jettySize=auto;html=1;entryX=1;entryY=0;entryDx=0;entryDy=0;" edge="1" parent="1" source="fJFOeW6E8pA7QztKi1U_-21" target="fJFOeW6E8pA7QztKi1U_-5">
          <mxGeometry relative="1" as="geometry">
            <Array as="points">
              <mxPoint x="405" y="880" />
              <mxPoint x="570" y="880" />
              <mxPoint x="570" y="640" />
              <mxPoint x="245" y="640" />
            </Array>
          </mxGeometry>
        </mxCell>
        <mxCell id="fJFOeW6E8pA7QztKi1U_-21" value="&lt;font style=&quot;font-size: 18px;&quot;&gt;k+=1&lt;/font&gt;" style="rounded=0;whiteSpace=wrap;html=1;" vertex="1" parent="1">
          <mxGeometry x="350" y="804" width="110" height="36" as="geometry" />
        </mxCell>
        <mxCell id="fJFOeW6E8pA7QztKi1U_-22" style="edgeStyle=orthogonalEdgeStyle;orthogonalLoop=1;jettySize=auto;html=1;entryX=0;entryY=0.5;entryDx=0;entryDy=0;" edge="1" parent="1" source="fJFOeW6E8pA7QztKi1U_-23" target="fJFOeW6E8pA7QztKi1U_-3">
          <mxGeometry relative="1" as="geometry">
            <Array as="points">
              <mxPoint x="100" y="898" />
              <mxPoint x="100" y="280" />
            </Array>
          </mxGeometry>
        </mxCell>
        <mxCell id="fJFOeW6E8pA7QztKi1U_-23" value="&lt;font style=&quot;font-size: 18px;&quot;&gt;i+=1&lt;/font&gt;" style="rounded=0;whiteSpace=wrap;html=1;" vertex="1" parent="1">
          <mxGeometry x="165" y="880" width="110" height="36" as="geometry" />
        </mxCell>
        <mxCell id="fJFOeW6E8pA7QztKi1U_-24" value="" style="endArrow=classic;html=1;rounded=0;entryX=0.5;entryY=0;entryDx=0;entryDy=0;exitX=0.5;exitY=1;exitDx=0;exitDy=0;" edge="1" parent="1" source="fJFOeW6E8pA7QztKi1U_-9" target="fJFOeW6E8pA7QztKi1U_-23">
          <mxGeometry width="50" height="50" relative="1" as="geometry">
            <mxPoint x="480" y="810" as="sourcePoint" />
            <mxPoint x="530" y="760" as="targetPoint" />
          </mxGeometry>
        </mxCell>
        <mxCell id="fJFOeW6E8pA7QztKi1U_-25" value="" style="endArrow=classic;html=1;rounded=0;" edge="1" parent="1">
          <mxGeometry width="50" height="50" relative="1" as="geometry">
            <mxPoint x="400" y="720" as="sourcePoint" />
            <mxPoint x="400" y="800" as="targetPoint" />
          </mxGeometry>
        </mxCell>
        <mxCell id="fJFOeW6E8pA7QztKi1U_-26" value="&lt;font style=&quot;font-size: 18px;&quot;&gt;End&lt;/font&gt;" style="strokeWidth=2;html=1;shape=mxgraph.flowchart.terminator;whiteSpace=wrap;fillColor=#A6A6A6;rounded=0;" vertex="1" parent="1">
          <mxGeometry x="364" y="260" width="100" height="40" as="geometry" />
        </mxCell>
        <mxCell id="fJFOeW6E8pA7QztKi1U_-27" value="&lt;font style=&quot;font-size: 18px;&quot;&gt;Start&lt;/font&gt;" style="strokeWidth=2;html=1;shape=mxgraph.flowchart.terminator;whiteSpace=wrap;fillColor=#A6A6A6;rounded=0;" vertex="1" parent="1">
          <mxGeometry x="170" width="100" height="40" as="geometry" />
        </mxCell>
        <mxCell id="fJFOeW6E8pA7QztKi1U_-28" value="" style="endArrow=classic;html=1;rounded=0;entryX=0.5;entryY=0;entryDx=0;entryDy=0;" edge="1" parent="1" target="fJFOeW6E8pA7QztKi1U_-29">
          <mxGeometry width="50" height="50" relative="1" as="geometry">
            <mxPoint x="220" y="400" as="sourcePoint" />
            <mxPoint x="220" y="655" as="targetPoint" />
          </mxGeometry>
        </mxCell>
        <mxCell id="fJFOeW6E8pA7QztKi1U_-29" value="&lt;div&gt;&lt;font size=&quot;3&quot;&gt;j&amp;gt;i&lt;/font&gt;&lt;/div&gt;" style="rhombus;whiteSpace=wrap;html=1;shadow=0;fontFamily=Helvetica;fontSize=12;align=center;strokeWidth=1;spacing=6;spacingTop=-4;fillColor=#A6A6A6;rounded=0;" vertex="1" parent="1">
          <mxGeometry x="170" y="440" width="100" height="80" as="geometry" />
        </mxCell>
        <mxCell id="fJFOeW6E8pA7QztKi1U_-30" value="&lt;span style=&quot;font-size: 18px;&quot;&gt;k=1&lt;/span&gt;" style="rounded=0;whiteSpace=wrap;html=1;" vertex="1" parent="1">
          <mxGeometry x="165" y="564.5" width="120" height="40" as="geometry" />
        </mxCell>
        <mxCell id="fJFOeW6E8pA7QztKi1U_-31" style="edgeStyle=orthogonalEdgeStyle;orthogonalLoop=1;jettySize=auto;html=1;exitX=0.5;exitY=1;exitDx=0;exitDy=0;entryX=0.5;entryY=0;entryDx=0;entryDy=0;" edge="1" parent="1" source="fJFOeW6E8pA7QztKi1U_-32" target="fJFOeW6E8pA7QztKi1U_-36">
          <mxGeometry relative="1" as="geometry" />
        </mxCell>
        <mxCell id="fJFOeW6E8pA7QztKi1U_-32" value="&lt;font style=&quot;font-size: 14px;&quot;&gt;&amp;nbsp; print(&quot; &quot;,end=&#39; &#39;)&lt;/font&gt;&lt;div&gt;&lt;font size=&quot;3&quot;&gt;in row&lt;/font&gt;&lt;/div&gt;" style="shape=parallelogram;perimeter=parallelogramPerimeter;whiteSpace=wrap;html=1;fixedSize=1;fillColor=#A6A6A6;rounded=0;" vertex="1" parent="1">
          <mxGeometry x="350" y="460" width="150" height="40" as="geometry" />
        </mxCell>
        <mxCell id="fJFOeW6E8pA7QztKi1U_-33" style="edgeStyle=orthogonalEdgeStyle;orthogonalLoop=1;jettySize=auto;html=1;exitX=1;exitY=0.5;exitDx=0;exitDy=0;entryX=0.029;entryY=0.601;entryDx=0;entryDy=0;entryPerimeter=0;" edge="1" parent="1" source="fJFOeW6E8pA7QztKi1U_-29" target="fJFOeW6E8pA7QztKi1U_-32">
          <mxGeometry relative="1" as="geometry" />
        </mxCell>
        <mxCell id="fJFOeW6E8pA7QztKi1U_-34" value="Yes" style="edgeLabel;html=1;align=center;verticalAlign=middle;resizable=0;points=[];" vertex="1" connectable="0" parent="fJFOeW6E8pA7QztKi1U_-33">
          <mxGeometry x="0.0886" y="3" relative="1" as="geometry">
            <mxPoint as="offset" />
          </mxGeometry>
        </mxCell>
        <mxCell id="fJFOeW6E8pA7QztKi1U_-35" style="edgeStyle=orthogonalEdgeStyle;orthogonalLoop=1;jettySize=auto;html=1;exitX=1;exitY=0.5;exitDx=0;exitDy=0;entryX=1;entryY=0;entryDx=0;entryDy=0;" edge="1" parent="1" source="fJFOeW6E8pA7QztKi1U_-36" target="fJFOeW6E8pA7QztKi1U_-29">
          <mxGeometry relative="1" as="geometry">
            <Array as="points">
              <mxPoint x="560" y="587" />
              <mxPoint x="560" y="410" />
              <mxPoint x="245" y="410" />
            </Array>
          </mxGeometry>
        </mxCell>
        <mxCell id="fJFOeW6E8pA7QztKi1U_-36" value="j-=1" style="rounded=0;whiteSpace=wrap;html=1;" vertex="1" parent="1">
          <mxGeometry x="370" y="570" width="120" height="34.5" as="geometry" />
        </mxCell>
      </root>
    </mxGraphModel>
  </diagram>
</mxfile>
